<?xml version="1.0" encoding="UTF-8" standalone="no"?>
<svg
   xmlns:dc="http://purl.org/dc/elements/1.1/"
   xmlns:cc="http://creativecommons.org/ns#"
   xmlns:rdf="http://www.w3.org/1999/02/22-rdf-syntax-ns#"
   xmlns:svg="http://www.w3.org/2000/svg"
   xmlns="http://www.w3.org/2000/svg"
   xmlns:sodipodi="http://sodipodi.sourceforge.net/DTD/sodipodi-0.dtd"
   xmlns:inkscape="http://www.inkscape.org/namespaces/inkscape"
   version="1.1"
   viewBox="0.0 0.0 957.2519685039371 716.3359580052494"
   fill="none"
   stroke="none"
   stroke-linecap="square"
   stroke-miterlimit="10"
   id="svg243"
   sodipodi:docname="interactions.svg"
   inkscape:version="0.92.2 5c3e80d, 2017-08-06">
  <metadata
     id="metadata249">
    <rdf:RDF>
      <cc:Work
         rdf:about="">
        <dc:format>image/svg+xml</dc:format>
        <dc:type
           rdf:resource="http://purl.org/dc/dcmitype/StillImage" />
      </cc:Work>
    </rdf:RDF>
  </metadata>
  <defs
     id="defs247" />
  <sodipodi:namedview
     pagecolor="#ffffff"
     bordercolor="#666666"
     borderopacity="1"
     objecttolerance="10"
     gridtolerance="10"
     guidetolerance="10"
     inkscape:pageopacity="0"
     inkscape:pageshadow="2"
     inkscape:window-width="1920"
     inkscape:window-height="1016"
     id="namedview245"
     showgrid="false"
     inkscape:zoom="0.83"
     inkscape:cx="326.70285"
     inkscape:cy="543.50013"
     inkscape:window-x="1080"
     inkscape:window-y="635"
     inkscape:window-maximized="1"
     inkscape:current-layer="g241"
     inkscape:measure-start="0,0"
     inkscape:measure-end="0,0" />
  <clipPath
     id="p.0">
    <path
       d="m0 0l957.25195 0l0 716.33594l-957.25195 0l0 -716.33594z"
       clip-rule="nonzero"
       id="path2" />
  </clipPath>
  <g
     clip-path="url(#p.0)"
     id="g241">
    <path
       fill="#000000"
       fill-opacity="0.0"
       d="m0 0l957.25195 0l0 716.33594l-957.25195 0z"
       fill-rule="evenodd"
       id="path5" />
    <path
       fill="#6fa8dc"
       d="m537.0971 460.60126l0 0c0 -5.3954163 4.3738403 -9.769226 9.769226 -9.769226l127.92615 0c2.5909424 0 5.0757446 1.0292358 6.907837 2.8613281c1.8320923 1.8320923 2.8613892 4.316925 2.8613892 6.907898l0 39.075714c0 5.3953857 -4.3738403 9.769226 -9.769226 9.769226l-127.92615 0l0 0c-5.3953857 0 -9.769226 -4.3738403 -9.769226 -9.769226z"
       fill-rule="evenodd"
       id="path7" />
    <path
       stroke="#000000"
       stroke-width="1.0"
       stroke-linejoin="round"
       stroke-linecap="butt"
       d="m537.0971 460.60126l0 0c0 -5.3954163 4.3738403 -9.769226 9.769226 -9.769226l127.92615 0c2.5909424 0 5.0757446 1.0292358 6.907837 2.8613281c1.8320923 1.8320923 2.8613892 4.316925 2.8613892 6.907898l0 39.075714c0 5.3953857 -4.3738403 9.769226 -9.769226 9.769226l-127.92615 0l0 0c-5.3953857 0 -9.769226 -4.3738403 -9.769226 -9.769226z"
       fill-rule="evenodd"
       id="path9" />
    <path
       fill="#000000"
       d="m565.8994 487.0591l0 -13.59375l1.671875 0l0 13.59375l-1.671875 0zm4.1917114 -11.6875l0 -1.90625l1.671875 0l0 1.90625l-1.671875 0zm0 11.6875l0 -9.859375l1.671875 0l0 9.859375l-1.671875 0zm5.6760864 0l-1.546875 0l0 -13.59375l1.65625 0l0 4.84375q1.0625 -1.328125 2.703125 -1.328125q0.90625 0 1.71875 0.375q0.8125 0.359375 1.328125 1.03125q0.53125 0.65625 0.828125 1.59375q0.296875 0.9375 0.296875 2.0q0 2.53125 -1.25 3.921875q-1.25 1.375 -3.0 1.375q-1.75 0 -2.734375 -1.453125l0 1.234375zm-0.015625 -5.0q0 1.765625 0.46875 2.5625q0.796875 1.28125 2.140625 1.28125q1.09375 0 1.890625 -0.9375q0.796875 -0.953125 0.796875 -2.84375q0 -1.921875 -0.765625 -2.84375q-0.765625 -0.921875 -1.84375 -0.921875q-1.09375 0 -1.890625 0.953125q-0.796875 0.953125 -0.796875 2.75zm10.391357 5.0l-1.546875 0l0 -13.59375l1.65625 0l0 4.84375q1.0625 -1.328125 2.703125 -1.328125q0.90625 0 1.71875 0.375q0.8125 0.359375 1.328125 1.03125q0.53125 0.65625 0.828125 1.59375q0.296875 0.9375 0.296875 2.0q0 2.53125 -1.25 3.921875q-1.25 1.375 -3.0 1.375q-1.75 0 -2.734375 -1.453125l0 1.234375zm-0.015625 -5.0q0 1.765625 0.46875 2.5625q0.796875 1.28125 2.140625 1.28125q1.09375 0 1.890625 -0.9375q0.796875 -0.953125 0.796875 -2.84375q0 -1.921875 -0.765625 -2.84375q-0.765625 -0.921875 -1.84375 -0.921875q-1.09375 0 -1.890625 0.953125q-0.796875 0.953125 -0.796875 2.75zm8.813171 5.0l0 -13.59375l1.671875 0l0 13.59375l-1.671875 0zm3.5510864 -4.921875q0 -2.734375 1.53125 -4.0625q1.265625 -1.09375 3.09375 -1.09375q2.03125 0 3.3125 1.34375q1.296875 1.328125 1.296875 3.671875q0 1.90625 -0.578125 3.0q-0.5625 1.078125 -1.65625 1.6875q-1.078125 0.59375 -2.375 0.59375q-2.0625 0 -3.34375 -1.328125q-1.28125 -1.328125 -1.28125 -3.8125zm1.71875 0q0 1.890625 0.828125 2.828125q0.828125 0.9375 2.078125 0.9375q1.25 0 2.0625 -0.9375q0.828125 -0.953125 0.828125 -2.890625q0 -1.828125 -0.828125 -2.765625q-0.828125 -0.9375 -2.0625 -0.9375q-1.25 0 -2.078125 0.9375q-0.828125 0.9375 -0.828125 2.828125zm15.719482 1.3125l1.640625 0.21875q-0.265625 1.6875 -1.375 2.65625q-1.109375 0.953125 -2.734375 0.953125q-2.015625 0 -3.25 -1.3125q-1.21875 -1.328125 -1.21875 -3.796875q0 -1.59375 0.515625 -2.78125q0.53125 -1.203125 1.609375 -1.796875q1.09375 -0.609375 2.359375 -0.609375q1.609375 0 2.625 0.8125q1.015625 0.8125 1.3125 2.3125l-1.625 0.25q-0.234375 -1.0 -0.828125 -1.5q-0.59375 -0.5 -1.421875 -0.5q-1.265625 0 -2.0625 0.90625q-0.78125 0.90625 -0.78125 2.859375q0 1.984375 0.765625 2.890625q0.765625 0.890625 1.984375 0.890625q0.984375 0 1.640625 -0.59375q0.65625 -0.609375 0.84375 -1.859375zm2.90625 3.609375l0 -13.59375l1.671875 0l0 7.75l3.953125 -4.015625l2.15625 0l-3.765625 3.65625l4.140625 6.203125l-2.0625 0l-3.25 -5.03125l-1.171875 1.125l0 3.90625l-1.671875 0zm15.703125 0l0 -1.25q-0.9375 1.46875 -2.75 1.46875q-1.171875 0 -2.171875 -0.640625q-0.984375 -0.65625 -1.53125 -1.8125q-0.53125 -1.171875 -0.53125 -2.6875q0 -1.46875 0.484375 -2.671875q0.5 -1.203125 1.46875 -1.84375q0.984375 -0.640625 2.203125 -0.640625q0.890625 0 1.578125 0.375q0.703125 0.375 1.140625 0.984375l0 -4.875l1.65625 0l0 13.59375l-1.546875 0zm-5.28125 -4.921875q0 1.890625 0.796875 2.828125q0.8125 0.9375 1.890625 0.9375q1.09375 0 1.859375 -0.890625q0.765625 -0.890625 0.765625 -2.734375q0 -2.015625 -0.78125 -2.953125q-0.78125 -0.953125 -1.921875 -0.953125q-1.109375 0 -1.859375 0.90625q-0.75 0.90625 -0.75 2.859375zm16.016357 1.75l1.71875 0.21875q-0.40625 1.5 -1.515625 2.34375q-1.09375 0.828125 -2.8125 0.828125q-2.15625 0 -3.421875 -1.328125q-1.265625 -1.328125 -1.265625 -3.734375q0 -2.484375 1.265625 -3.859375q1.28125 -1.375 3.328125 -1.375q1.984375 0 3.234375 1.34375q1.25 1.34375 1.25 3.796875q0 0.140625 -0.015625 0.4375l-7.34375 0q0.09375 1.625 0.921875 2.484375q0.828125 0.859375 2.0625 0.859375q0.90625 0 1.546875 -0.46875q0.65625 -0.484375 1.046875 -1.546875zm-5.484375 -2.703125l5.5 0q-0.109375 -1.234375 -0.625 -1.859375q-0.796875 -0.96875 -2.078125 -0.96875q-1.140625 0 -1.9375 0.78125q-0.78125 0.765625 -0.859375 2.046875zm11.844421 5.875l-3.75 -9.859375l1.765625 0l2.125 5.90625q0.34375 0.953125 0.625 1.984375q0.21875 -0.78125 0.625 -1.875l2.1875 -6.015625l1.71875 0l-3.734375 9.859375l-1.5625 0z"
       fill-rule="nonzero"
       id="path11" />
    <path
       fill="#cfe2f3"
       d="m22.551182 615.75085l0 0c0 -5.3953857 4.373831 -9.769226 9.769222 -9.769226l127.92612 0c2.5909576 0 5.0758057 1.0292358 6.9078827 2.8613281c1.8320923 1.8320923 2.8613434 4.3169556 2.8613434 6.907898l0 39.075745c0 5.3953857 -4.373825 9.769226 -9.769226 9.769226l-127.92612 0l0 0c-5.3953915 0 -9.769222 -4.3738403 -9.769222 -9.769226z"
       fill-rule="evenodd"
       id="path13" />
    <path
       stroke="#000000"
       stroke-width="1.0"
       stroke-linejoin="round"
       stroke-linecap="butt"
       d="m22.551182 615.75085l0 0c0 -5.3953857 4.373831 -9.769226 9.769222 -9.769226l127.92612 0c2.5909576 0 5.0758057 1.0292358 6.9078827 2.8613281c1.8320923 1.8320923 2.8613434 4.3169556 2.8613434 6.907898l0 39.075745c0 5.3953857 -4.373825 9.769226 -9.769226 9.769226l-127.92612 0l0 0c-5.3953915 0 -9.769222 -4.3738403 -9.769222 -9.769226z"
       fill-rule="evenodd"
       id="path15" />
    <path
       fill="#000000"
       d="m61.72011 642.20874l0 -13.59375l1.671875 0l0 13.59375l-1.671875 0zm4.1916924 -11.6875l0 -1.90625l1.671875 0l0 1.90625l-1.671875 0zm0 11.6875l0 -9.859375l1.671875 0l0 9.859375l-1.671875 0zm5.676071 0l-1.546875 0l0 -13.59375l1.65625 0l0 4.84375q1.0625 -1.328125 2.703125 -1.328125q0.90625 0 1.71875 0.375q0.8125 0.359375 1.328125 1.03125q0.53125 0.65625 0.828125 1.59375q0.296875 0.9375 0.296875 2.0q0 2.53125 -1.25 3.921875q-1.25 1.375 -3.0 1.375q-1.75 0 -2.734375 -1.453125l0 1.234375zm-0.015625 -5.0q0 1.765625 0.46875 2.5625q0.796875 1.28125 2.140625 1.28125q1.09375 0 1.890625 -0.9375q0.796875 -0.953125 0.796875 -2.84375q0 -1.921875 -0.765625 -2.84375q-0.765625 -0.921875 -1.84375 -0.921875q-1.09375 0 -1.890625 0.953125q-0.796875 0.953125 -0.796875 2.75zm8.844467 8.78125l0 -13.640625l1.53125 0l0 1.28125q0.53125 -0.75 1.203125 -1.125q0.6875 -0.375 1.640625 -0.375q1.265625 0 2.234375 0.65625q0.96875 0.640625 1.453125 1.828125q0.5 1.1875 0.5 2.59375q0 1.515625 -0.546875 2.734375q-0.546875 1.203125 -1.578125 1.84375q-1.03125 0.640625 -2.171875 0.640625q-0.84375 0 -1.515625 -0.34375q-0.65625 -0.359375 -1.078125 -0.890625l0 4.796875l-1.671875 0zm1.515625 -8.65625q0 1.90625 0.765625 2.8125q0.78125 0.90625 1.875 0.90625q1.109375 0 1.890625 -0.9375q0.796875 -0.9375 0.796875 -2.921875q0 -1.875 -0.78125 -2.8125q-0.765625 -0.9375 -1.84375 -0.9375q-1.0625 0 -1.890625 1.0q-0.8125 1.0 -0.8125 2.890625zm15.297592 3.65625q-0.9375 0.796875 -1.796875 1.125q-0.859375 0.3125 -1.84375 0.3125q-1.609375 0 -2.484375 -0.78125q-0.875 -0.796875 -0.875 -2.03125q0 -0.734375 0.328125 -1.328125q0.328125 -0.59375 0.859375 -0.953125q0.53125 -0.359375 1.203125 -0.546875q0.5 -0.140625 1.484375 -0.25q2.03125 -0.25 2.984375 -0.578125q0 -0.34375 0 -0.4375q0 -1.015625 -0.46875 -1.4375q-0.640625 -0.5625 -1.90625 -0.5625q-1.171875 0 -1.734375 0.40625q-0.5625 0.40625 -0.828125 1.46875l-1.640625 -0.234375q0.234375 -1.046875 0.734375 -1.6875q0.515625 -0.640625 1.46875 -0.984375q0.96875 -0.359375 2.25 -0.359375q1.265625 0 2.046875 0.296875q0.78125 0.296875 1.15625 0.75q0.375 0.453125 0.515625 1.140625q0.09375 0.421875 0.09375 1.53125l0 2.234375q0 2.328125 0.09375 2.953125q0.109375 0.609375 0.4375 1.171875l-1.75 0q-0.265625 -0.515625 -0.328125 -1.21875zm-0.140625 -3.71875q-0.90625 0.359375 -2.734375 0.625q-1.03125 0.140625 -1.453125 0.328125q-0.421875 0.1875 -0.65625 0.546875q-0.234375 0.359375 -0.234375 0.796875q0 0.671875 0.5 1.125q0.515625 0.4375 1.484375 0.4375q0.96875 0 1.71875 -0.421875q0.75 -0.4375 1.109375 -1.15625q0.265625 -0.578125 0.265625 -1.671875l0 -0.609375zm4.063217 4.9375l0 -9.859375l1.5 0l0 1.5q0.578125 -1.046875 1.0625 -1.375q0.484375 -0.34375 1.078125 -0.34375q0.84375 0 1.71875 0.546875l-0.578125 1.546875q-0.609375 -0.359375 -1.234375 -0.359375q-0.546875 0 -0.984375 0.328125q-0.421875 0.328125 -0.609375 0.90625q-0.28125 0.890625 -0.28125 1.953125l0 5.15625l-1.671875 0zm9.884552 -1.5l0.234375 1.484375q-0.703125 0.140625 -1.265625 0.140625q-0.90625 0 -1.40625 -0.28125q-0.5 -0.296875 -0.703125 -0.75q-0.203125 -0.46875 -0.203125 -1.984375l0 -5.65625l-1.234375 0l0 -1.3125l1.234375 0l0 -2.4375l1.65625 -1.0l0 3.4375l1.6875 0l0 1.3125l-1.6875 0l0 5.75q0 0.71875 0.078125 0.921875q0.09375 0.203125 0.296875 0.328125q0.203125 0.125 0.578125 0.125q0.265625 0 0.734375 -0.078125zm8.277054 -1.671875l1.71875 0.21875q-0.40625 1.5 -1.515625 2.34375q-1.09375 0.828125 -2.8125 0.828125q-2.15625 0 -3.421875 -1.328125q-1.265625 -1.328125 -1.265625 -3.734375q0 -2.484375 1.265625 -3.859375q1.28125 -1.375 3.328125 -1.375q1.984375 0 3.234375 1.34375q1.25 1.34375 1.25 3.796875q0 0.140625 -0.015625 0.4375l-7.34375 0q0.09375 1.625 0.921875 2.484375q0.828125 0.859375 2.0625 0.859375q0.90625 0 1.546875 -0.46875q0.65625 -0.484375 1.046875 -1.546875zm-5.484375 -2.703125l5.5 0q-0.109375 -1.234375 -0.625 -1.859375q-0.796875 -0.96875 -2.078125 -0.96875q-1.140625 0 -1.9375 0.78125q-0.78125 0.765625 -0.859375 2.046875zm15.500717 5.875l0 -1.25q-0.9375 1.46875 -2.75 1.46875q-1.171875 0 -2.171875 -0.640625q-0.984375 -0.65625 -1.53125 -1.8125q-0.53125 -1.171875 -0.53125 -2.6875q0 -1.46875 0.484375 -2.671875q0.5 -1.203125 1.46875 -1.84375q0.984375 -0.640625 2.203125 -0.640625q0.890625 0 1.578125 0.375q0.703125 0.375 1.140625 0.984375l0 -4.875l1.65625 0l0 13.59375l-1.546875 0zm-5.28125 -4.921875q0 1.890625 0.796875 2.828125q0.8125 0.9375 1.890625 0.9375q1.09375 0 1.859375 -0.890625q0.765625 -0.890625 0.765625 -2.734375q0 -2.015625 -0.78125 -2.953125q-0.78125 -0.953125 -1.921875 -0.953125q-1.109375 0 -1.859375 0.90625q-0.75 0.90625 -0.75 2.859375z"
       fill-rule="nonzero"
       id="path17" />
    <path
       fill="#6fa8dc"
       d="m552.9711 326.5619l0 0c0 -5.3954163 4.3738403 -9.769226 9.769226 -9.769226l96.1781 0c2.5909424 0 5.0758057 1.0292358 6.907898 2.8613281c1.8320312 1.8320923 2.8613281 4.316925 2.8613281 6.907898l0 39.075714c0 5.3953857 -4.3738403 9.769226 -9.769226 9.769226l-96.1781 0c-5.3953857 0 -9.769226 -4.3738403 -9.769226 -9.769226z"
       fill-rule="evenodd"
       id="path19" />
    <path
       stroke="#000000"
       stroke-width="1.0"
       stroke-linejoin="round"
       stroke-linecap="butt"
       d="m552.9711 326.5619l0 0c0 -5.3954163 4.3738403 -9.769226 9.769226 -9.769226l96.1781 0c2.5909424 0 5.0758057 1.0292358 6.907898 2.8613281c1.8320312 1.8320923 2.8613281 4.316925 2.8613281 6.907898l0 39.075714c0 5.3953857 -4.3738403 9.769226 -9.769226 9.769226l-96.1781 0c-5.3953857 0 -9.769226 -4.3738403 -9.769226 -9.769226z"
       fill-rule="evenodd"
       id="path21" />
    <path
       fill="#000000"
       d="m592.0922 353.01974l0 -1.453125q-1.140625 1.671875 -3.125 1.671875q-0.859375 0 -1.625 -0.328125q-0.75 -0.34375 -1.125 -0.84375q-0.359375 -0.5 -0.515625 -1.234375q-0.09375 -0.5 -0.09375 -1.5625l0 -6.109375l1.671875 0l0 5.46875q0 1.3125 0.09375 1.765625q0.15625 0.65625 0.671875 1.03125q0.515625 0.375 1.265625 0.375q0.75 0 1.40625 -0.375q0.65625 -0.390625 0.921875 -1.046875q0.28125 -0.671875 0.28125 -1.9375l0 -5.28125l1.671875 0l0 9.859375l-1.5 0zm10.313171 0l0 -1.25q-0.9375 1.46875 -2.75 1.46875q-1.171875 0 -2.171875 -0.640625q-0.984375 -0.65625 -1.53125 -1.8125q-0.53125 -1.171875 -0.53125 -2.6875q0 -1.46875 0.484375 -2.671875q0.5 -1.203125 1.46875 -1.84375q0.984375 -0.640625 2.203125 -0.640625q0.890625 0 1.578125 0.375q0.703125 0.375 1.140625 0.984375l0 -4.875l1.65625 0l0 13.59375l-1.546875 0zm-5.28125 -4.921875q0 1.890625 0.796875 2.828125q0.8125 0.9375 1.890625 0.9375q1.09375 0 1.859375 -0.890625q0.765625 -0.890625 0.765625 -2.734375q0 -2.015625 -0.78125 -2.953125q-0.78125 -0.953125 -1.921875 -0.953125q-1.109375 0 -1.859375 0.90625q-0.75 0.90625 -0.75 2.859375zm9.281982 -6.765625l0 -1.90625l1.671875 0l0 1.90625l-1.671875 0zm0 11.6875l0 -9.859375l1.671875 0l0 9.859375l-1.671875 0zm3.4573364 -2.9375l1.65625 -0.265625q0.140625 1.0 0.765625 1.53125q0.640625 0.515625 1.78125 0.515625q1.15625 0 1.703125 -0.46875q0.5625 -0.46875 0.5625 -1.09375q0 -0.5625 -0.484375 -0.890625q-0.34375 -0.21875 -1.703125 -0.5625q-1.84375 -0.46875 -2.5625 -0.796875q-0.703125 -0.34375 -1.078125 -0.9375q-0.359375 -0.609375 -0.359375 -1.328125q0 -0.65625 0.296875 -1.21875q0.3125 -0.5625 0.828125 -0.9375q0.390625 -0.28125 1.0625 -0.484375q0.671875 -0.203125 1.4375 -0.203125q1.171875 0 2.046875 0.34375q0.875 0.328125 1.28125 0.90625q0.421875 0.5625 0.578125 1.515625l-1.625 0.21875q-0.109375 -0.75 -0.65625 -1.171875q-0.53125 -0.4375 -1.5 -0.4375q-1.15625 0 -1.640625 0.390625q-0.484375 0.375 -0.484375 0.875q0 0.328125 0.203125 0.59375q0.203125 0.265625 0.640625 0.4375q0.25 0.09375 1.46875 0.4375q1.765625 0.46875 2.46875 0.765625q0.703125 0.296875 1.09375 0.875q0.40625 0.578125 0.40625 1.4375q0 0.828125 -0.484375 1.578125q-0.484375 0.734375 -1.40625 1.140625q-0.921875 0.390625 -2.078125 0.390625q-1.921875 0 -2.9375 -0.796875q-1.0 -0.796875 -1.28125 -2.359375zm10.015625 2.9375l0 -13.59375l1.671875 0l0 7.75l3.953125 -4.015625l2.15625 0l-3.765625 3.65625l4.140625 6.203125l-2.0625 0l-3.25 -5.03125l-1.171875 1.125l0 3.90625l-1.671875 0zm8.640625 -2.9375l1.65625 -0.265625q0.140625 1.0 0.765625 1.53125q0.640625 0.515625 1.78125 0.515625q1.15625 0 1.703125 -0.46875q0.5625 -0.46875 0.5625 -1.09375q0 -0.5625 -0.484375 -0.890625q-0.34375 -0.21875 -1.703125 -0.5625q-1.84375 -0.46875 -2.5625 -0.796875q-0.703125 -0.34375 -1.078125 -0.9375q-0.359375 -0.609375 -0.359375 -1.328125q0 -0.65625 0.296875 -1.21875q0.3125 -0.5625 0.828125 -0.9375q0.390625 -0.28125 1.0625 -0.484375q0.671875 -0.203125 1.4375 -0.203125q1.171875 0 2.046875 0.34375q0.875 0.328125 1.28125 0.90625q0.421875 0.5625 0.578125 1.515625l-1.625 0.21875q-0.109375 -0.75 -0.65625 -1.171875q-0.53125 -0.4375 -1.5 -0.4375q-1.15625 0 -1.640625 0.390625q-0.484375 0.375 -0.484375 0.875q0 0.328125 0.203125 0.59375q0.203125 0.265625 0.640625 0.4375q0.25 0.09375 1.46875 0.4375q1.765625 0.46875 2.46875 0.765625q0.703125 0.296875 1.09375 0.875q0.40625 0.578125 0.40625 1.4375q0 0.828125 -0.484375 1.578125q-0.484375 0.734375 -1.40625 1.140625q-0.921875 0.390625 -2.078125 0.390625q-1.921875 0 -2.9375 -0.796875q-1.0 -0.796875 -1.28125 -2.359375z"
       fill-rule="nonzero"
       id="path23" />
    <path
       fill="#6fa8dc"
       d="m270.99738 192.5107l0 0c0 -5.395401 4.3738403 -9.769226 9.769226 -9.769226l127.92612 0c2.590973 0 5.0758057 1.0292511 6.907898 2.8613434c1.8320618 1.832077 2.8613281 4.316925 2.8613281 6.9078827l0 39.07573c0 5.3953857 -4.3738403 9.769211 -9.769226 9.769211l-127.92612 0l0 0c-5.3953857 0 -9.769226 -4.373825 -9.769226 -9.769211z"
       fill-rule="evenodd"
       id="path25" />
    <path
       stroke="#000000"
       stroke-width="1.0"
       stroke-linejoin="round"
       stroke-linecap="butt"
       d="m270.99738 192.5107l0 0c0 -5.395401 4.3738403 -9.769226 9.769226 -9.769226l127.92612 0c2.590973 0 5.0758057 1.0292511 6.907898 2.8613434c1.8320618 1.832077 2.8613281 4.316925 2.8613281 6.9078827l0 39.07573c0 5.3953857 -4.3738403 9.769211 -9.769226 9.769211l-127.92612 0l0 0c-5.3953857 0 -9.769226 -4.373825 -9.769226 -9.769211z"
       fill-rule="evenodd"
       id="path27" />
    <path
       fill="#000000"
       d="m325.75027 218.96855l-1.546875 0l0 -13.59375l1.65625 0l0 4.84375q1.0625 -1.328125 2.703125 -1.328125q0.90625 0 1.71875 0.375q0.8125 0.359375 1.328125 1.03125q0.53125 0.65625 0.828125 1.59375q0.296875 0.9375 0.296875 2.0q0 2.53125 -1.25 3.921875q-1.25 1.375 -3.0 1.375q-1.75 0 -2.734375 -1.453125l0 1.234375zm-0.015625 -5.0q0 1.765625 0.46875 2.5625q0.796875 1.28125 2.140625 1.28125q1.09375 0 1.890625 -0.9375q0.796875 -0.953125 0.796875 -2.84375q0 -1.921875 -0.765625 -2.84375q-0.765625 -0.921875 -1.84375 -0.921875q-1.09375 0 -1.890625 0.953125q-0.796875 0.953125 -0.796875 2.75zm8.813232 5.0l0 -13.59375l1.671875 0l0 13.59375l-1.671875 0zm4.191681 -11.6875l0 -1.90625l1.671875 0l0 1.90625l-1.671875 0zm0 11.6875l0 -9.859375l1.671875 0l0 9.859375l-1.671875 0zm6.8635864 0l-3.75 -9.859375l1.765625 0l2.125 5.90625q0.34375 0.953125 0.625 1.984375q0.21875 -0.78125 0.625 -1.875l2.1875 -6.015625l1.71875 0l-3.734375 9.859375l-1.5625 0zm13.34375 -3.171875l1.71875 0.21875q-0.40625 1.5 -1.515625 2.34375q-1.09375 0.828125 -2.8125 0.828125q-2.15625 0 -3.421875 -1.328125q-1.265625 -1.328125 -1.265625 -3.734375q0 -2.484375 1.265625 -3.859375q1.28125 -1.375 3.328125 -1.375q1.984375 0 3.234375 1.34375q1.25 1.34375 1.25 3.796875q0 0.140625 -0.015625 0.4375l-7.34375 0q0.09375 1.625 0.921875 2.484375q0.828125 0.859375 2.0625 0.859375q0.90625 0 1.546875 -0.46875q0.65625 -0.484375 1.046875 -1.546875zm-5.484375 -2.703125l5.5 0q-0.109375 -1.234375 -0.625 -1.859375q-0.796875 -0.96875 -2.078125 -0.96875q-1.140625 0 -1.9375 0.78125q-0.78125 0.765625 -0.859375 2.046875zm12.766327 4.375l0.234375 1.484375q-0.703125 0.140625 -1.265625 0.140625q-0.90625 0 -1.40625 -0.28125q-0.5 -0.296875 -0.703125 -0.75q-0.203125 -0.46875 -0.203125 -1.984375l0 -5.65625l-1.234375 0l0 -1.3125l1.234375 0l0 -2.4375l1.65625 -1.0l0 3.4375l1.6875 0l0 1.3125l-1.6875 0l0 5.75q0 0.71875 0.078125 0.921875q0.09375 0.203125 0.296875 0.328125q0.203125 0.125 0.578125 0.125q0.265625 0 0.734375 -0.078125z"
       fill-rule="nonzero"
       id="path29" />
    <path
       d="m 690.48509,40.302032 v 0 c 0,-5.395393 4.37378,-9.769224 9.76923,-9.769224 h 90.4458 c 2.59094,0 5.07581,1.029255 6.90784,2.861341 1.83209,1.832085 2.86139,4.316925 2.86139,6.907883 v 39.07572 c 0,5.395394 -4.37384,9.769226 -9.76923,9.769226 h -90.4458 c -5.39545,0 -9.76923,-4.373832 -9.76923,-9.769226 z"
       id="path31"
       inkscape:connector-curvature="0"
       style="fill:#cfe2f3;fill-rule:evenodd" />
    <path
       d="m 690.48509,40.302032 v 0 c 0,-5.395393 4.37378,-9.769224 9.76923,-9.769224 h 90.4458 c 2.59094,0 5.07581,1.029255 6.90784,2.861341 1.83209,1.832085 2.86139,4.316925 2.86139,6.907883 v 39.07572 c 0,5.395394 -4.37384,9.769226 -9.76923,9.769226 h -90.4458 c -5.39545,0 -9.76923,-4.373832 -9.76923,-9.769226 z"
       id="path33"
       inkscape:connector-curvature="0"
       style="fill-rule:evenodd;stroke:#000000;stroke-width:1;stroke-linecap:butt;stroke-linejoin:round" />
    <path
       d="m 724.13269,63.150517 1.64063,0.21875 q -0.26563,1.687504 -1.375,2.656254 -1.10938,0.953125 -2.73438,0.953125 -2.01562,0 -3.25,-1.3125 -1.21875,-1.328125 -1.21875,-3.796879 0,-1.59375 0.51563,-2.78125 0.53125,-1.203125 1.60937,-1.796875 1.09375,-0.609375 2.35938,-0.609375 1.60937,0 2.625,0.8125 1.01562,0.8125 1.3125,2.3125 l -1.625,0.25 q -0.23438,-1 -0.82813,-1.5 -0.59375,-0.5 -1.42187,-0.5 -1.26563,0 -2.0625,0.90625 -0.78125,0.90625 -0.78125,2.859375 0,1.984375 0.76562,2.890629 0.76563,0.890625 1.98438,0.890625 0.98437,0 1.64062,-0.59375 0.65625,-0.609375 0.84375,-1.859379 z m 2.26563,-1.3125 q 0,-2.734375 1.53125,-4.0625 1.26562,-1.09375 3.09375,-1.09375 2.03125,0 3.3125,1.34375 1.29687,1.328125 1.29687,3.671875 0,1.90625 -0.57812,3.000004 -0.5625,1.078125 -1.65625,1.6875 -1.07813,0.59375 -2.375,0.59375 -2.0625,0 -3.34375,-1.328125 -1.28125,-1.328125 -1.28125,-3.812504 z m 1.71875,0 q 0,1.890625 0.82812,2.828129 0.82813,0.9375 2.07813,0.9375 1.25,0 2.0625,-0.9375 0.82812,-0.953129 0.82812,-2.890629 0,-1.828125 -0.82812,-2.765625 -0.82813,-0.9375 -2.0625,-0.9375 -1.25,0 -2.07813,0.9375 -0.82812,0.9375 -0.82812,2.828125 z m 15.71948,1.3125 1.64063,0.21875 q -0.26563,1.687504 -1.375,2.656254 -1.10938,0.953125 -2.73438,0.953125 -2.01562,0 -3.25,-1.3125 -1.21875,-1.328125 -1.21875,-3.796879 0,-1.59375 0.51563,-2.78125 0.53125,-1.203125 1.60937,-1.796875 1.09375,-0.609375 2.35938,-0.609375 1.60937,0 2.625,0.8125 1.01562,0.8125 1.3125,2.3125 l -1.625,0.25 q -0.23438,-1 -0.82813,-1.5 -0.59375,-0.5 -1.42187,-0.5 -1.26563,0 -2.0625,0.90625 -0.78125,0.90625 -0.78125,2.859375 0,1.984375 0.76562,2.890629 0.76563,0.890625 1.98438,0.890625 0.98437,0 1.64062,-0.59375 0.65625,-0.609375 0.84375,-1.859379 z m 2.90625,3.609379 V 53.166142 h 1.67188 v 7.75 l 3.95312,-4.015625 h 2.15625 l -3.76562,3.65625 4.14062,6.203129 h -2.0625 l -3.25,-5.031254 -1.17187,1.125 v 3.906254 z m 9.3125,3.78125 V 56.900517 h 1.53125 v 1.28125 q 0.53125,-0.75 1.20313,-1.125 0.6875,-0.375 1.64062,-0.375 1.26563,0 2.23438,0.65625 0.96875,0.640625 1.45312,1.828125 0.5,1.1875 0.5,2.59375 0,1.515625 -0.54687,2.734379 -0.54688,1.203125 -1.57813,1.84375 -1.03125,0.640625 -2.17187,0.640625 -0.84375,0 -1.51563,-0.34375 -0.65625,-0.359375 -1.07812,-0.890625 v 4.796875 z m 1.51563,-8.656254 q 0,1.90625 0.76562,2.812504 0.78125,0.90625 1.875,0.90625 1.10938,0 1.89063,-0.9375 0.79687,-0.937504 0.79687,-2.921879 0,-1.875 -0.78125,-2.8125 -0.76562,-0.9375 -1.84375,-0.9375 -1.0625,0 -1.89062,1 -0.8125,1 -0.8125,2.890625 z m 8.87567,-6.8125 v -1.90625 h 1.67187 v 1.90625 z m 0,11.687504 v -9.859379 h 1.67187 v 9.859379 z m 7.78546,-1.5 0.23437,1.484375 q -0.70312,0.140625 -1.26562,0.140625 -0.90625,0 -1.40625,-0.28125 -0.5,-0.296875 -0.70313,-0.75 -0.20312,-0.46875 -0.20312,-1.984379 v -5.65625 h -1.23438 v -1.3125 h 1.23438 v -2.4375 l 1.65625,-1 v 3.4375 h 1.6875 v 1.3125 h -1.6875 v 5.75 q 0,0.718754 0.0781,0.921879 0.0937,0.203125 0.29688,0.328125 0.20312,0.125 0.57812,0.125 0.26563,0 0.73438,-0.07813 z"
       id="path35"
       inkscape:connector-curvature="0"
       style="fill:#000000;fill-rule:nonzero" />
    <path
       fill="#000000"
       fill-opacity="0.0"
       d="m344.72964 241.35564l266.11026 209.48033"
       fill-rule="evenodd"
       id="path37" />
    <path
       stroke="#000000"
       stroke-width="1.0"
       stroke-linejoin="round"
       stroke-linecap="butt"
       d="m344.72964 241.35564l261.39572 205.76909"
       fill-rule="evenodd"
       id="path39" />
    <path
       fill="#000000"
       stroke="#000000"
       stroke-width="1.0"
       stroke-linecap="butt"
       d="m605.1037 448.42258l4.5875244 1.5091248l-2.5441895 -4.104828z"
       fill-rule="evenodd"
       id="path41" />
    <path
       fill="#cfe2f3"
       d="m496.48688 615.75085l0 0c0 -5.3953857 4.3738403 -9.769226 9.769226 -9.769226l120.587524 0c2.5909424 0 5.0758057 1.0292358 6.907898 2.8613281c1.8320923 1.8320923 2.8613281 4.3169556 2.8613281 6.907898l0 39.075745c0 5.3953857 -4.3738403 9.769226 -9.769226 9.769226l-120.587524 0c-5.3953857 0 -9.769226 -4.3738403 -9.769226 -9.769226z"
       fill-rule="evenodd"
       id="path43" />
    <path
       stroke="#000000"
       stroke-width="1.0"
       stroke-linejoin="round"
       stroke-linecap="butt"
       d="m496.48688 615.75085l0 0c0 -5.3953857 4.3738403 -9.769226 9.769226 -9.769226l120.587524 0c2.5909424 0 5.0758057 1.0292358 6.907898 2.8613281c1.8320923 1.8320923 2.8613281 4.3169556 2.8613281 6.907898l0 39.075745c0 5.3953857 -4.3738403 9.769226 -9.769226 9.769226l-120.587524 0c-5.3953857 0 -9.769226 -4.3738403 -9.769226 -9.769226z"
       fill-rule="evenodd"
       id="path45" />
    <path
       fill="#000000"
       d="m515.40265 642.20874l0 -13.59375l1.671875 0l0 13.59375l-1.671875 0zm4.1917114 -11.6875l0 -1.90625l1.671875 0l0 1.90625l-1.671875 0zm0 11.6875l0 -9.859375l1.671875 0l0 9.859375l-1.671875 0zm5.6760864 0l-1.546875 0l0 -13.59375l1.65625 0l0 4.84375q1.0625 -1.328125 2.703125 -1.328125q0.90625 0 1.71875 0.375q0.8125 0.359375 1.328125 1.03125q0.53125 0.65625 0.828125 1.59375q0.296875 0.9375 0.296875 2.0q0 2.53125 -1.25 3.921875q-1.25 1.375 -3.0 1.375q-1.75 0 -2.734375 -1.453125l0 1.234375zm-0.015625 -5.0q0 1.765625 0.46875 2.5625q0.796875 1.28125 2.140625 1.28125q1.09375 0 1.890625 -0.9375q0.796875 -0.953125 0.796875 -2.84375q0 -1.921875 -0.765625 -2.84375q-0.765625 -0.921875 -1.84375 -0.921875q-1.09375 0 -1.890625 0.953125q-0.796875 0.953125 -0.796875 2.75zm15.281982 1.390625l1.640625 0.21875q-0.265625 1.6875 -1.375 2.65625q-1.109375 0.953125 -2.734375 0.953125q-2.015625 0 -3.25 -1.3125q-1.21875 -1.328125 -1.21875 -3.796875q0 -1.59375 0.515625 -2.78125q0.53125 -1.203125 1.609375 -1.796875q1.09375 -0.609375 2.359375 -0.609375q1.609375 0 2.625 0.8125q1.015625 0.8125 1.3125 2.3125l-1.625 0.25q-0.234375 -1.0 -0.828125 -1.5q-0.59375 -0.5 -1.421875 -0.5q-1.265625 0 -2.0625 0.90625q-0.78125 0.90625 -0.78125 2.859375q0 1.984375 0.765625 2.890625q0.765625 0.890625 1.984375 0.890625q0.984375 0 1.640625 -0.59375q0.65625 -0.609375 0.84375 -1.859375zm2.875 3.609375l0 -9.859375l1.5 0l0 1.5q0.578125 -1.046875 1.0625 -1.375q0.484375 -0.34375 1.078125 -0.34375q0.84375 0 1.71875 0.546875l-0.578125 1.546875q-0.609375 -0.359375 -1.234375 -0.359375q-0.546875 0 -0.984375 0.328125q-0.421875 0.328125 -0.609375 0.90625q-0.28125 0.890625 -0.28125 1.953125l0 5.15625l-1.671875 0zm6.1501465 3.796875l-0.171875 -1.5625q0.546875 0.140625 0.953125 0.140625q0.546875 0 0.875 -0.1875q0.34375 -0.1875 0.5625 -0.515625q0.15625 -0.25 0.5 -1.25q0.046875 -0.140625 0.15625 -0.40625l-3.734375 -9.875l1.796875 0l2.046875 5.71875q0.40625 1.078125 0.71875 2.28125q0.28125 -1.15625 0.6875 -2.25l2.09375 -5.75l1.671875 0l-3.75 10.03125q-0.59375 1.625 -0.9375 2.234375q-0.4375 0.828125 -1.015625 1.203125q-0.578125 0.390625 -1.375 0.390625q-0.484375 0 -1.078125 -0.203125zm9.40625 -0.015625l0 -13.640625l1.53125 0l0 1.28125q0.53125 -0.75 1.203125 -1.125q0.6875 -0.375 1.640625 -0.375q1.265625 0 2.234375 0.65625q0.96875 0.640625 1.453125 1.828125q0.5 1.1875 0.5 2.59375q0 1.515625 -0.546875 2.734375q-0.546875 1.203125 -1.578125 1.84375q-1.03125 0.640625 -2.171875 0.640625q-0.84375 0 -1.515625 -0.34375q-0.65625 -0.359375 -1.078125 -0.890625l0 4.796875l-1.671875 0zm1.515625 -8.65625q0 1.90625 0.765625 2.8125q0.78125 0.90625 1.875 0.90625q1.109375 0 1.890625 -0.9375q0.796875 -0.9375 0.796875 -2.921875q0 -1.875 -0.78125 -2.8125q-0.765625 -0.9375 -1.84375 -0.9375q-1.0625 0 -1.890625 1.0q-0.8125 1.0 -0.8125 2.890625zm12.516357 3.375l0.234375 1.484375q-0.703125 0.140625 -1.265625 0.140625q-0.90625 0 -1.40625 -0.28125q-0.5 -0.296875 -0.703125 -0.75q-0.203125 -0.46875 -0.203125 -1.984375l0 -5.65625l-1.234375 0l0 -1.3125l1.234375 0l0 -2.4375l1.65625 -1.0l0 3.4375l1.6875 0l0 1.3125l-1.6875 0l0 5.75q0 0.71875 0.078125 0.921875q0.09375 0.203125 0.296875 0.328125q0.203125 0.125 0.578125 0.125q0.265625 0 0.734375 -0.078125zm0.8551636 -1.4375l1.65625 -0.265625q0.140625 1.0 0.765625 1.53125q0.640625 0.515625 1.78125 0.515625q1.15625 0 1.703125 -0.46875q0.5625 -0.46875 0.5625 -1.09375q0 -0.5625 -0.484375 -0.890625q-0.34375 -0.21875 -1.703125 -0.5625q-1.84375 -0.46875 -2.5625 -0.796875q-0.703125 -0.34375 -1.078125 -0.9375q-0.359375 -0.609375 -0.359375 -1.328125q0 -0.65625 0.296875 -1.21875q0.3125 -0.5625 0.828125 -0.9375q0.390625 -0.28125 1.0625 -0.484375q0.671875 -0.203125 1.4375 -0.203125q1.171875 0 2.046875 0.34375q0.875 0.328125 1.28125 0.90625q0.421875 0.5625 0.578125 1.515625l-1.625 0.21875q-0.109375 -0.75 -0.65625 -1.171875q-0.53125 -0.4375 -1.5 -0.4375q-1.15625 0 -1.640625 0.390625q-0.484375 0.375 -0.484375 0.875q0 0.328125 0.203125 0.59375q0.203125 0.265625 0.640625 0.4375q0.25 0.09375 1.46875 0.4375q1.765625 0.46875 2.46875 0.765625q0.703125 0.296875 1.09375 0.875q0.40625 0.578125 0.40625 1.4375q0 0.828125 -0.484375 1.578125q-0.484375 0.734375 -1.40625 1.140625q-0.921875 0.390625 -2.078125 0.390625q-1.921875 0 -2.9375 -0.796875q-1.0 -0.796875 -1.28125 -2.359375zm16.75 -0.234375l1.71875 0.21875q-0.40625 1.5 -1.515625 2.34375q-1.09375 0.828125 -2.8125 0.828125q-2.15625 0 -3.421875 -1.328125q-1.265625 -1.328125 -1.265625 -3.734375q0 -2.484375 1.265625 -3.859375q1.28125 -1.375 3.328125 -1.375q1.984375 0 3.234375 1.34375q1.25 1.34375 1.25 3.796875q0 0.140625 -0.015625 0.4375l-7.34375 0q0.09375 1.625 0.921875 2.484375q0.828125 0.859375 2.0625 0.859375q0.90625 0 1.546875 -0.46875q0.65625 -0.484375 1.046875 -1.546875zm-5.484375 -2.703125l5.5 0q-0.109375 -1.234375 -0.625 -1.859375q-0.796875 -0.96875 -2.078125 -0.96875q-1.140625 0 -1.9375 0.78125q-0.78125 0.765625 -0.859375 2.046875zm12.766357 4.375l0.234375 1.484375q-0.703125 0.140625 -1.265625 0.140625q-0.90625 0 -1.40625 -0.28125q-0.5 -0.296875 -0.703125 -0.75q-0.203125 -0.46875 -0.203125 -1.984375l0 -5.65625l-1.234375 0l0 -1.3125l1.234375 0l0 -2.4375l1.65625 -1.0l0 3.4375l1.6875 0l0 1.3125l-1.6875 0l0 5.75q0 0.71875 0.078125 0.921875q0.09375 0.203125 0.296875 0.328125q0.203125 0.125 0.578125 0.125q0.265625 0 0.734375 -0.078125zm7.9801636 1.5l0 -1.453125q-1.140625 1.671875 -3.125 1.671875q-0.859375 0 -1.625 -0.328125q-0.75 -0.34375 -1.125 -0.84375q-0.359375 -0.5 -0.515625 -1.234375q-0.09375 -0.5 -0.09375 -1.5625l0 -6.109375l1.671875 0l0 5.46875q0 1.3125 0.09375 1.765625q0.15625 0.65625 0.671875 1.03125q0.515625 0.375 1.265625 0.375q0.75 0 1.40625 -0.375q0.65625 -0.390625 0.921875 -1.046875q0.28125 -0.671875 0.28125 -1.9375l0 -5.28125l1.671875 0l0 9.859375l-1.5 0zm3.9226074 3.78125l0 -13.640625l1.53125 0l0 1.28125q0.53125 -0.75 1.203125 -1.125q0.6875 -0.375 1.640625 -0.375q1.265625 0 2.234375 0.65625q0.96875 0.640625 1.453125 1.828125q0.5 1.1875 0.5 2.59375q0 1.515625 -0.546875 2.734375q-0.546875 1.203125 -1.578125 1.84375q-1.03125 0.640625 -2.171875 0.640625q-0.84375 0 -1.515625 -0.34375q-0.65625 -0.359375 -1.078125 -0.890625l0 4.796875l-1.671875 0zm1.515625 -8.65625q0 1.90625 0.765625 2.8125q0.78125 0.90625 1.875 0.90625q1.109375 0 1.890625 -0.9375q0.796875 -0.9375 0.796875 -2.921875q0 -1.875 -0.78125 -2.8125q-0.765625 -0.9375 -1.84375 -0.9375q-1.0625 0 -1.890625 1.0q-0.8125 1.0 -0.8125 2.890625z"
       fill-rule="nonzero"
       id="path47" />
    <path
       fill="#000000"
       fill-opacity="0.0"
       d="m610.8294 375.40683l0 75.433075"
       fill-rule="evenodd"
       id="path49" />
    <path
       stroke="#000000"
       stroke-width="1.0"
       stroke-linejoin="round"
       stroke-linecap="butt"
       d="m610.8294 375.40683l0 69.433075"
       fill-rule="evenodd"
       id="path51" />
    <path
       fill="#000000"
       stroke="#000000"
       stroke-width="1.0"
       stroke-linecap="butt"
       d="m609.1777 444.8399l1.6517334 4.538086l1.6517334 -4.538086z"
       fill-rule="evenodd"
       id="path53" />
    <path
       fill="#000000"
       fill-opacity="0.0"
       d="m610.8294 509.4462l-44.283447 96.53543"
       fill-rule="evenodd"
       id="path55" />
    <path
       stroke="#000000"
       stroke-width="1.0"
       stroke-linejoin="round"
       stroke-linecap="butt"
       d="m610.8294 509.4462l-41.78174 91.08188"
       fill-rule="evenodd"
       id="path57" />
    <path
       fill="#000000"
       stroke="#000000"
       stroke-width="1.0"
       stroke-linecap="butt"
       d="m567.5463 599.83936l-0.39086914 4.8134766l3.3934937 -3.4360962z"
       fill-rule="evenodd"
       id="path59" />
    <path
       fill="#000000"
       fill-opacity="0.0"
       d="m610.8294 509.4462l-201.95276 96.53543"
       fill-rule="evenodd"
       id="path61" />
    <path
       stroke="#000000"
       stroke-width="1.0"
       stroke-linejoin="round"
       stroke-linecap="butt"
       d="m610.8294 509.4462l-196.53943 93.947784"
       fill-rule="evenodd"
       id="path63" />
    <path
       fill="#000000"
       stroke="#000000"
       stroke-width="1.0"
       stroke-linecap="butt"
       d="m413.57764 601.90375l-3.3820496 3.4473877l4.806732 -0.46691895z"
       fill-rule="evenodd"
       id="path65" />
    <path
       fill="#000000"
       fill-opacity="0.0"
       d="m610.8294 509.4462l-350.89764 96.53543"
       fill-rule="evenodd"
       id="path67" />
    <path
       stroke="#000000"
       stroke-width="1.0"
       stroke-linejoin="round"
       stroke-linecap="butt"
       d="m610.8294 509.4462l-345.11258 94.94388"
       fill-rule="evenodd"
       id="path69" />
    <path
       fill="#000000"
       stroke="#000000"
       stroke-width="1.0"
       stroke-linecap="butt"
       d="m265.2787 602.79755l-3.9374084 2.7963257l4.81369 0.38879395z"
       fill-rule="evenodd"
       id="path71" />
    <path
       fill="#000000"
       fill-opacity="0.0"
       d="m610.8294 509.4462l115.71655 96.53543"
       fill-rule="evenodd"
       id="path73" />
    <path
       stroke="#000000"
       stroke-width="1.0"
       stroke-linejoin="round"
       stroke-linecap="butt"
       d="m610.8294 509.4462l111.10925 92.691864"
       fill-rule="evenodd"
       id="path75" />
    <path
       fill="#000000"
       stroke="#000000"
       stroke-width="1.0"
       stroke-linecap="butt"
       d="m720.88055 603.4064l4.5427856 1.638794l-2.4265747 -4.175415z"
       fill-rule="evenodd"
       id="path77" />
    <path
       fill="#000000"
       fill-opacity="0.0"
       d="m610.8294 509.4462l-514.5512 96.53543"
       fill-rule="evenodd"
       id="path79" />
    <path
       stroke="#000000"
       stroke-width="1.0"
       stroke-linejoin="round"
       stroke-linecap="butt"
       d="m610.8294 509.4462l-508.65408 95.42905"
       fill-rule="evenodd"
       id="path81" />
    <path
       fill="#000000"
       stroke="#000000"
       stroke-width="1.0"
       stroke-linecap="butt"
       d="m101.87076 603.25183l-4.1557083 2.460205l4.764847 0.7866211z"
       fill-rule="evenodd"
       id="path83" />
    <path
       fill="#000000"
       fill-opacity="0.0"
       d="m344.72964 241.35564l-248.44093 364.62988"
       fill-rule="evenodd"
       id="path85" />
    <path
       stroke="#000000"
       stroke-width="1.0"
       stroke-linejoin="round"
       stroke-linecap="butt"
       d="m344.72964 241.35564l-245.0625 359.67145"
       fill-rule="evenodd"
       id="path87" />
    <path
       fill="#000000"
       stroke="#000000"
       stroke-width="1.0"
       stroke-linecap="butt"
       d="m98.30215 600.09705l-1.1902771 4.68042l3.920288 -2.8203125z"
       fill-rule="evenodd"
       id="path89" />
    <path
       fill="#cfe2f3"
       d="m667.916 615.75085l0 0c0 -5.3953857 4.3738403 -9.769226 9.769226 -9.769226l97.68988 0c2.5909424 0 5.0758057 1.0292358 6.907898 2.8613281c1.8320923 1.8320923 2.8613281 4.3169556 2.8613281 6.907898l0 39.075745c0 5.3953857 -4.3738403 9.769226 -9.769226 9.769226l-97.68988 0c-5.3953857 0 -9.769226 -4.3738403 -9.769226 -9.769226z"
       fill-rule="evenodd"
       id="path91" />
    <path
       stroke="#000000"
       stroke-width="1.0"
       stroke-linejoin="round"
       stroke-linecap="butt"
       d="m667.916 615.75085l0 0c0 -5.3953857 4.3738403 -9.769226 9.769226 -9.769226l97.68988 0c2.5909424 0 5.0758057 1.0292358 6.907898 2.8613281c1.8320923 1.8320923 2.8613281 4.3169556 2.8613281 6.907898l0 39.075745c0 5.3953857 -4.3738403 9.769226 -9.769226 9.769226l-97.68988 0c-5.3953857 0 -9.769226 -4.3738403 -9.769226 -9.769226z"
       fill-rule="evenodd"
       id="path93" />
    <path
       fill="#000000"
       d="m720.9307 642.20874l0 -8.546875l-1.484375 0l0 -1.3125l1.484375 0l0 -1.046875q0 -0.984375 0.171875 -1.46875q0.234375 -0.65625 0.84375 -1.046875q0.609375 -0.40625 1.703125 -0.40625q0.703125 0 1.5625 0.15625l-0.25 1.46875q-0.515625 -0.09375 -0.984375 -0.09375q-0.765625 0 -1.078125 0.328125q-0.3125 0.3125 -0.3125 1.203125l0 0.90625l1.921875 0l0 1.3125l-1.921875 0l0 8.546875l-1.65625 0zm4.1051636 -2.9375l1.65625 -0.265625q0.140625 1.0 0.765625 1.53125q0.640625 0.515625 1.78125 0.515625q1.15625 0 1.703125 -0.46875q0.5625 -0.46875 0.5625 -1.09375q0 -0.5625 -0.484375 -0.890625q-0.34375 -0.21875 -1.703125 -0.5625q-1.84375 -0.46875 -2.5625 -0.796875q-0.703125 -0.34375 -1.078125 -0.9375q-0.359375 -0.609375 -0.359375 -1.328125q0 -0.65625 0.296875 -1.21875q0.3125 -0.5625 0.828125 -0.9375q0.390625 -0.28125 1.0625 -0.484375q0.671875 -0.203125 1.4375 -0.203125q1.171875 0 2.046875 0.34375q0.875 0.328125 1.28125 0.90625q0.421875 0.5625 0.578125 1.515625l-1.625 0.21875q-0.109375 -0.75 -0.65625 -1.171875q-0.53125 -0.4375 -1.5 -0.4375q-1.15625 0 -1.640625 0.390625q-0.484375 0.375 -0.484375 0.875q0 0.328125 0.203125 0.59375q0.203125 0.265625 0.640625 0.4375q0.25 0.09375 1.46875 0.4375q1.765625 0.46875 2.46875 0.765625q0.703125 0.296875 1.09375 0.875q0.40625 0.578125 0.40625 1.4375q0 0.828125 -0.484375 1.578125q-0.484375 0.734375 -1.40625 1.140625q-0.921875 0.390625 -2.078125 0.390625q-1.921875 0 -2.9375 -0.796875q-1.0 -0.796875 -1.28125 -2.359375z"
       fill-rule="nonzero"
       id="path95" />
    <path
       fill="#cfe2f3"
       d="m198.55118 615.75085l0 0c0 -5.3953857 4.3738403 -9.769226 9.769226 -9.769226l103.20172 0c2.5909424 0 5.075775 1.0292358 6.9078674 2.8613281c1.8320923 1.8320923 2.8613586 4.3169556 2.8613586 6.907898l0 39.075745c0 5.3953857 -4.3738403 9.769226 -9.769226 9.769226l-103.20172 0c-5.3953857 0 -9.769226 -4.3738403 -9.769226 -9.769226z"
       fill-rule="evenodd"
       id="path97"
       style="fill:#cfe2f3;fill-opacity:1" />
    <path
       stroke="#000000"
       stroke-width="1.0"
       stroke-linejoin="round"
       stroke-linecap="butt"
       d="m198.55118 615.75085l0 0c0 -5.3953857 4.3738403 -9.769226 9.769226 -9.769226l103.20172 0c2.5909424 0 5.075775 1.0292358 6.9078674 2.8613281c1.8320923 1.8320923 2.8613586 4.3169556 2.8613586 6.907898l0 39.075745c0 5.3953857 -4.3738403 9.769226 -9.769226 9.769226l-103.20172 0c-5.3953857 0 -9.769226 -4.3738403 -9.769226 -9.769226z"
       fill-rule="evenodd"
       id="path99" />
    <path
       fill="#000000"
       d="m230.06688 642.20874l0 -9.859375l1.5 0l0 1.390625q0.453125 -0.71875 1.21875 -1.15625q0.78125 -0.453125 1.765625 -0.453125q1.09375 0 1.796875 0.453125q0.703125 0.453125 0.984375 1.28125q1.171875 -1.734375 3.046875 -1.734375q1.46875 0 2.25 0.8125q0.796875 0.8125 0.796875 2.5l0 6.765625l-1.671875 0l0 -6.203125q0 -1.0 -0.15625 -1.4375q-0.15625 -0.453125 -0.59375 -0.71875q-0.421875 -0.265625 -1.0 -0.265625q-1.03125 0 -1.71875 0.6875q-0.6875 0.6875 -0.6875 2.21875l0 5.71875l-1.671875 0l0 -6.40625q0 -1.109375 -0.40625 -1.65625q-0.40625 -0.5625 -1.34375 -0.5625q-0.703125 0 -1.3125 0.375q-0.59375 0.359375 -0.859375 1.078125q-0.265625 0.71875 -0.265625 2.0625l0 5.109375l-1.671875 0zm21.931427 0l0 -1.25q-0.9375 1.46875 -2.75 1.46875q-1.171875 0 -2.171875 -0.640625q-0.984375 -0.65625 -1.53125 -1.8125q-0.53125 -1.171875 -0.53125 -2.6875q0 -1.46875 0.484375 -2.671875q0.5 -1.203125 1.46875 -1.84375q0.984375 -0.640625 2.203125 -0.640625q0.890625 0 1.578125 0.375q0.703125 0.375 1.140625 0.984375l0 -4.875l1.65625 0l0 13.59375l-1.546875 0zm-5.28125 -4.921875q0 1.890625 0.796875 2.828125q0.8125 0.9375 1.890625 0.9375q1.09375 0 1.859375 -0.890625q0.765625 -0.890625 0.765625 -2.734375q0 -2.015625 -0.78125 -2.953125q-0.78125 -0.953125 -1.921875 -0.953125q-1.109375 0 -1.859375 0.90625q-0.75 0.90625 -0.75 2.859375zm15.703842 3.703125q-0.9375 0.796875 -1.796875 1.125q-0.859375 0.3125 -1.84375 0.3125q-1.609375 0 -2.484375 -0.78125q-0.875 -0.796875 -0.875 -2.03125q0 -0.734375 0.328125 -1.328125q0.328125 -0.59375 0.859375 -0.953125q0.53125 -0.359375 1.203125 -0.546875q0.5 -0.140625 1.484375 -0.25q2.03125 -0.25 2.984375 -0.578125q0 -0.34375 0 -0.4375q0 -1.015625 -0.46875 -1.4375q-0.640625 -0.5625 -1.90625 -0.5625q-1.171875 0 -1.734375 0.40625q-0.5625 0.40625 -0.828125 1.46875l-1.640625 -0.234375q0.234375 -1.046875 0.734375 -1.6875q0.515625 -0.640625 1.46875 -0.984375q0.96875 -0.359375 2.25 -0.359375q1.265625 0 2.046875 0.296875q0.78125 0.296875 1.15625 0.75q0.375 0.453125 0.515625 1.140625q0.09375 0.421875 0.09375 1.53125l0 2.234375q0 2.328125 0.09375 2.953125q0.109375 0.609375 0.4375 1.171875l-1.75 0q-0.265625 -0.515625 -0.328125 -1.21875zm-0.140625 -3.71875q-0.90625 0.359375 -2.734375 0.625q-1.03125 0.140625 -1.453125 0.328125q-0.421875 0.1875 -0.65625 0.546875q-0.234375 0.359375 -0.234375 0.796875q0 0.671875 0.5 1.125q0.515625 0.4375 1.484375 0.4375q0.96875 0 1.71875 -0.421875q0.75 -0.4375 1.109375 -1.15625q0.265625 -0.578125 0.265625 -1.671875l0 -0.609375zm10.469452 4.9375l0 -1.25q-0.9375 1.46875 -2.75 1.46875q-1.171875 0 -2.171875 -0.640625q-0.984375 -0.65625 -1.53125 -1.8125q-0.53125 -1.171875 -0.53125 -2.6875q0 -1.46875 0.484375 -2.671875q0.5 -1.203125 1.46875 -1.84375q0.984375 -0.640625 2.203125 -0.640625q0.890625 0 1.578125 0.375q0.703125 0.375 1.140625 0.984375l0 -4.875l1.65625 0l0 13.59375l-1.546875 0zm-5.28125 -4.921875q0 1.890625 0.796875 2.828125q0.8125 0.9375 1.890625 0.9375q1.09375 0 1.859375 -0.890625q0.765625 -0.890625 0.765625 -2.734375q0 -2.015625 -0.78125 -2.953125q-0.78125 -0.953125 -1.921875 -0.953125q-1.109375 0 -1.859375 0.90625q-0.75 0.90625 -0.75 2.859375zm9.266357 4.921875l0 -9.859375l1.5 0l0 1.390625q0.453125 -0.71875 1.21875 -1.15625q0.78125 -0.453125 1.765625 -0.453125q1.09375 0 1.796875 0.453125q0.703125 0.453125 0.984375 1.28125q1.171875 -1.734375 3.046875 -1.734375q1.46875 0 2.25 0.8125q0.796875 0.8125 0.796875 2.5l0 6.765625l-1.671875 0l0 -6.203125q0 -1.0 -0.15625 -1.4375q-0.15625 -0.453125 -0.59375 -0.71875q-0.421875 -0.265625 -1.0 -0.265625q-1.03125 0 -1.71875 0.6875q-0.6875 0.6875 -0.6875 2.21875l0 5.71875l-1.671875 0l0 -6.40625q0 -1.109375 -0.40625 -1.65625q-0.40625 -0.5625 -1.34375 -0.5625q-0.703125 0 -1.3125 0.375q-0.59375 0.359375 -0.859375 1.078125q-0.265625 0.71875 -0.265625 2.0625l0 5.109375l-1.671875 0z"
       fill-rule="nonzero"
       id="path101" />
    <path
       fill="#6fa8dc"
       d="m353.89862 615.75085l0 0c0 -5.3953857 4.3738403 -9.769226 9.769226 -9.769226l90.4458 0c2.590973 0 5.0758057 1.0292358 6.907898 2.8613281c1.8320923 1.8320923 2.8613281 4.3169556 2.8613281 6.907898l0 39.075745c0 5.3953857 -4.37381 9.769226 -9.769226 9.769226l-90.4458 0c-5.3953857 0 -9.769226 -4.3738403 -9.769226 -9.769226z"
       fill-rule="evenodd"
       id="path103"
       style="fill:#cfe2f3;fill-opacity:1" />
    <path
       stroke="#000000"
       stroke-width="1.0"
       stroke-linejoin="round"
       stroke-linecap="butt"
       d="m353.89862 615.75085l0 0c0 -5.3953857 4.3738403 -9.769226 9.769226 -9.769226l90.4458 0c2.590973 0 5.0758057 1.0292358 6.907898 2.8613281c1.8320923 1.8320923 2.8613281 4.3169556 2.8613281 6.907898l0 39.075745c0 5.3953857 -4.37381 9.769226 -9.769226 9.769226l-90.4458 0c-5.3953857 0 -9.769226 -4.3738403 -9.769226 -9.769226z"
       fill-rule="evenodd"
       id="path105" />
    <path
       fill="#000000"
       d="m366.9787 642.20874l0 -13.59375l1.671875 0l0 13.59375l-1.671875 0zm6.910431 0l-3.75 -9.859375l1.765625 0l2.125 5.90625q0.34375 0.953125 0.625 1.984375q0.21875 -0.78125 0.625 -1.875l2.1875 -6.015625l1.71875 0l-3.734375 9.859375l-1.5625 0zm6.59375 0l0 -9.859375l1.5 0l0 1.390625q0.453125 -0.71875 1.21875 -1.15625q0.78125 -0.453125 1.765625 -0.453125q1.09375 0 1.796875 0.453125q0.703125 0.453125 0.984375 1.28125q1.171875 -1.734375 3.046875 -1.734375q1.46875 0 2.25 0.8125q0.796875 0.8125 0.796875 2.5l0 6.765625l-1.671875 0l0 -6.203125q0 -1.0 -0.15625 -1.4375q-0.15625 -0.453125 -0.59375 -0.71875q-0.421875 -0.265625 -1.0 -0.265625q-1.03125 0 -1.71875 0.6875q-0.6875 0.6875 -0.6875 2.21875l0 5.71875l-1.671875 0l0 -6.40625q0 -1.109375 -0.40625 -1.65625q-0.40625 -0.5625 -1.34375 -0.5625q-0.703125 0 -1.3125 0.375q-0.59375 0.359375 -0.859375 1.078125q-0.265625 0.71875 -0.265625 2.0625l0 5.109375l-1.671875 0zm14.900177 -4.078125l0 -1.6875l5.125 0l0 1.6875l-5.125 0zm13.243927 4.078125l0 -1.25q-0.9375 1.46875 -2.75 1.46875q-1.171875 0 -2.171875 -0.640625q-0.984375 -0.65625 -1.53125 -1.8125q-0.53125 -1.171875 -0.53125 -2.6875q0 -1.46875 0.484375 -2.671875q0.5 -1.203125 1.46875 -1.84375q0.984375 -0.640625 2.203125 -0.640625q0.890625 0 1.578125 0.375q0.703125 0.375 1.140625 0.984375l0 -4.875l1.65625 0l0 13.59375l-1.546875 0zm-5.28125 -4.921875q0 1.890625 0.796875 2.828125q0.8125 0.9375 1.890625 0.9375q1.09375 0 1.859375 -0.890625q0.765625 -0.890625 0.765625 -2.734375q0 -2.015625 -0.78125 -2.953125q-0.78125 -0.953125 -1.921875 -0.953125q-1.109375 0 -1.859375 0.90625q-0.75 0.90625 -0.75 2.859375zm10.813232 4.921875l-1.546875 0l0 -13.59375l1.65625 0l0 4.84375q1.0625 -1.328125 2.703125 -1.328125q0.90625 0 1.71875 0.375q0.8125 0.359375 1.328125 1.03125q0.53125 0.65625 0.828125 1.59375q0.296875 0.9375 0.296875 2.0q0 2.53125 -1.25 3.921875q-1.25 1.375 -3.0 1.375q-1.75 0 -2.734375 -1.453125l0 1.234375zm-0.015625 -5.0q0 1.765625 0.46875 2.5625q0.796875 1.28125 2.140625 1.28125q1.09375 0 1.890625 -0.9375q0.796875 -0.953125 0.796875 -2.84375q0 -1.921875 -0.765625 -2.84375q-0.765625 -0.921875 -1.84375 -0.921875q-1.09375 0 -1.890625 0.953125q-0.796875 0.953125 -0.796875 2.75zm15.297577 5.0l0 -1.453125q-1.140625 1.671875 -3.125 1.671875q-0.859375 0 -1.625 -0.328125q-0.75 -0.34375 -1.125 -0.84375q-0.359375 -0.5 -0.515625 -1.234375q-0.09375 -0.5 -0.09375 -1.5625l0 -6.109375l1.671875 0l0 5.46875q0 1.3125 0.09375 1.765625q0.15625 0.65625 0.671875 1.03125q0.515625 0.375 1.265625 0.375q0.75 0 1.40625 -0.375q0.65625 -0.390625 0.921875 -1.046875q0.28125 -0.671875 0.28125 -1.9375l0 -5.28125l1.671875 0l0 9.859375l-1.5 0zm3.2507324 -2.9375l1.65625 -0.265625q0.140625 1.0 0.765625 1.53125q0.640625 0.515625 1.78125 0.515625q1.15625 0 1.703125 -0.46875q0.5625 -0.46875 0.5625 -1.09375q0 -0.5625 -0.484375 -0.890625q-0.34375 -0.21875 -1.703125 -0.5625q-1.84375 -0.46875 -2.5625 -0.796875q-0.703125 -0.34375 -1.078125 -0.9375q-0.359375 -0.609375 -0.359375 -1.328125q0 -0.65625 0.296875 -1.21875q0.3125 -0.5625 0.828125 -0.9375q0.390625 -0.28125 1.0625 -0.484375q0.671875 -0.203125 1.4375 -0.203125q1.171875 0 2.046875 0.34375q0.875 0.328125 1.28125 0.90625q0.421875 0.5625 0.578125 1.515625l-1.625 0.21875q-0.109375 -0.75 -0.65625 -1.171875q-0.53125 -0.4375 -1.5 -0.4375q-1.15625 0 -1.640625 0.390625q-0.484375 0.375 -0.484375 0.875q0 0.328125 0.203125 0.59375q0.203125 0.265625 0.640625 0.4375q0.25 0.09375 1.46875 0.4375q1.765625 0.46875 2.46875 0.765625q0.703125 0.296875 1.09375 0.875q0.40625 0.578125 0.40625 1.4375q0 0.828125 -0.484375 1.578125q-0.484375 0.734375 -1.40625 1.140625q-0.921875 0.390625 -2.078125 0.390625q-1.921875 0 -2.9375 -0.796875q-1.0 -0.796875 -1.28125 -2.359375z"
       fill-rule="nonzero"
       id="path107" />
    <path
       fill="#cfe2f3"
       d="m820.9895 615.75085l0 0c0 -5.3953857 4.3738403 -9.769226 9.769226 -9.769226l97.68988 0c2.5910034 0 5.0758057 1.0292358 6.907898 2.8613281c1.8320923 1.8320923 2.8613281 4.3169556 2.8613281 6.907898l0 39.075745c0 5.3953857 -4.3738403 9.769226 -9.769226 9.769226l-97.68988 0c-5.3953857 0 -9.769226 -4.3738403 -9.769226 -9.769226z"
       fill-rule="evenodd"
       id="path109" />
    <path
       stroke="#000000"
       stroke-width="1.0"
       stroke-linejoin="round"
       stroke-linecap="butt"
       d="m820.9895 615.75085l0 0c0 -5.3953857 4.3738403 -9.769226 9.769226 -9.769226l97.68988 0c2.5910034 0 5.0758057 1.0292358 6.907898 2.8613281c1.8320923 1.8320923 2.8613281 4.3169556 2.8613281 6.907898l0 39.075745c0 5.3953857 -4.3738403 9.769226 -9.769226 9.769226l-97.68988 0c-5.3953857 0 -9.769226 -4.3738403 -9.769226 -9.769226z"
       fill-rule="evenodd"
       id="path111" />
    <path
       fill="#000000"
       d="m858.4055 639.27124l1.65625 -0.265625q0.140625 1.0 0.765625 1.53125q0.640625 0.515625 1.78125 0.515625q1.15625 0 1.703125 -0.46875q0.5625 -0.46875 0.5625 -1.09375q0 -0.5625 -0.484375 -0.890625q-0.34375 -0.21875 -1.703125 -0.5625q-1.84375 -0.46875 -2.5625 -0.796875q-0.703125 -0.34375 -1.078125 -0.9375q-0.359375 -0.609375 -0.359375 -1.328125q0 -0.65625 0.296875 -1.21875q0.3125 -0.5625 0.828125 -0.9375q0.390625 -0.28125 1.0625 -0.484375q0.671875 -0.203125 1.4375 -0.203125q1.171875 0 2.046875 0.34375q0.875 0.328125 1.28125 0.90625q0.421875 0.5625 0.578125 1.515625l-1.625 0.21875q-0.109375 -0.75 -0.65625 -1.171875q-0.53125 -0.4375 -1.5 -0.4375q-1.15625 0 -1.640625 0.390625q-0.484375 0.375 -0.484375 0.875q0 0.328125 0.203125 0.59375q0.203125 0.265625 0.640625 0.4375q0.25 0.09375 1.46875 0.4375q1.765625 0.46875 2.46875 0.765625q0.703125 0.296875 1.09375 0.875q0.40625 0.578125 0.40625 1.4375q0 0.828125 -0.484375 1.578125q-0.484375 0.734375 -1.40625 1.140625q-0.921875 0.390625 -2.078125 0.390625q-1.921875 0 -2.9375 -0.796875q-1.0 -0.796875 -1.28125 -2.359375zm11.828125 2.9375l-3.015625 -9.859375l1.71875 0l1.5625 5.6875l0.59375 2.125q0.03125 -0.15625 0.5 -2.03125l1.578125 -5.78125l1.71875 0l1.46875 5.71875l0.484375 1.890625l0.578125 -1.90625l1.6875 -5.703125l1.625 0l-3.078125 9.859375l-1.734375 0l-1.578125 -5.90625l-0.375 -1.671875l-2.0 7.578125l-1.734375 0zm18.082336 -1.21875q-0.9375 0.796875 -1.796875 1.125q-0.859375 0.3125 -1.84375 0.3125q-1.609375 0 -2.484375 -0.78125q-0.875 -0.796875 -0.875 -2.03125q0 -0.734375 0.328125 -1.328125q0.328125 -0.59375 0.859375 -0.953125q0.53125 -0.359375 1.203125 -0.546875q0.5 -0.140625 1.484375 -0.25q2.03125 -0.25 2.984375 -0.578125q0 -0.34375 0 -0.4375q0 -1.015625 -0.46875 -1.4375q-0.640625 -0.5625 -1.90625 -0.5625q-1.171875 0 -1.734375 0.40625q-0.5625 0.40625 -0.828125 1.46875l-1.640625 -0.234375q0.234375 -1.046875 0.734375 -1.6875q0.515625 -0.640625 1.46875 -0.984375q0.96875 -0.359375 2.25 -0.359375q1.265625 0 2.046875 0.296875q0.78125 0.296875 1.15625 0.75q0.375 0.453125 0.515625 1.140625q0.09375 0.421875 0.09375 1.53125l0 2.234375q0 2.328125 0.09375 2.953125q0.109375 0.609375 0.4375 1.171875l-1.75 0q-0.265625 -0.515625 -0.328125 -1.21875zm-0.140625 -3.71875q-0.90625 0.359375 -2.734375 0.625q-1.03125 0.140625 -1.453125 0.328125q-0.421875 0.1875 -0.65625 0.546875q-0.234375 0.359375 -0.234375 0.796875q0 0.671875 0.5 1.125q0.515625 0.4375 1.484375 0.4375q0.96875 0 1.71875 -0.421875q0.75 -0.4375 1.109375 -1.15625q0.265625 -0.578125 0.265625 -1.671875l0 -0.609375zm4.0788574 8.71875l0 -13.640625l1.53125 0l0 1.28125q0.53125 -0.75 1.203125 -1.125q0.6875 -0.375 1.640625 -0.375q1.265625 0 2.234375 0.65625q0.96875 0.640625 1.453125 1.828125q0.5 1.1875 0.5 2.59375q0 1.515625 -0.546875 2.734375q-0.546875 1.203125 -1.578125 1.84375q-1.03125 0.640625 -2.171875 0.640625q-0.84375 0 -1.515625 -0.34375q-0.65625 -0.359375 -1.078125 -0.890625l0 4.796875l-1.671875 0zm1.515625 -8.65625q0 1.90625 0.765625 2.8125q0.78125 0.90625 1.875 0.90625q1.109375 0 1.890625 -0.9375q0.796875 -0.9375 0.796875 -2.921875q0 -1.875 -0.78125 -2.8125q-0.765625 -0.9375 -1.84375 -0.9375q-1.0625 0 -1.890625 1.0q-0.8125 1.0 -0.8125 2.890625z"
       fill-rule="nonzero"
       id="path113" />
    <path
       fill="#000000"
       fill-opacity="0.0"
       d="m610.8294 509.4462l268.7874 96.53543"
       fill-rule="evenodd"
       id="path115" />
    <path
       stroke="#000000"
       stroke-width="1.0"
       stroke-linejoin="round"
       stroke-linecap="butt"
       d="m610.8294 509.4462l263.14056 94.507355"
       fill-rule="evenodd"
       id="path117" />
    <path
       fill="#000000"
       stroke="#000000"
       stroke-width="1.0"
       stroke-linecap="butt"
       d="m873.4116 605.50806l4.8293457 -0.020568848l-3.7127075 -3.08844z"
       fill-rule="evenodd"
       id="path119" />
    <path
       fill="#000000"
       fill-opacity="0.0"
       d="m652.1037 89.14698l-41.259888 227.65356"
       fill-rule="evenodd"
       id="path121" />
    <path
       d="M 747.88683,89.74939 611.91382,310.89674"
       id="path123"
       inkscape:connector-curvature="0"
       style="fill-rule:evenodd;stroke:#000000;stroke-width:1;stroke-linecap:butt;stroke-linejoin:round"
       sodipodi:nodetypes="cc" />
    <path
       fill="#000000"
       stroke="#000000"
       stroke-width="1.0"
       stroke-linecap="butt"
       d="m610.2886 310.60214l0.815979 4.759918l2.4345703 -4.170807z"
       fill-rule="evenodd"
       id="path125" />
    <path
       d="m 330.28342,40.302032 v 0 c 0,-5.395393 4.37381,-9.769224 9.76923,-9.769224 H 449.2071 c 2.59097,0 5.0758,1.029255 6.90789,2.861341 1.8321,1.832085 2.86133,4.316925 2.86133,6.907883 v 39.07572 c 0,5.395394 -4.37384,9.769226 -9.76922,9.769226 H 340.05265 c -5.39542,0 -9.76923,-4.373832 -9.76923,-9.769226 z"
       id="path133"
       inkscape:connector-curvature="0"
       style="fill:#cfe2f3;fill-rule:evenodd" />
    <path
       d="m 330.28342,40.302032 v 0 c 0,-5.395393 4.37381,-9.769224 9.76923,-9.769224 H 449.2071 c 2.59097,0 5.0758,1.029255 6.90789,2.861341 1.8321,1.832085 2.86133,4.316925 2.86133,6.907883 v 39.07572 c 0,5.395394 -4.37384,9.769226 -9.76922,9.769226 H 340.05265 c -5.39542,0 -9.76923,-4.373832 -9.76923,-9.769226 z"
       id="path135"
       inkscape:connector-curvature="0"
       style="fill-rule:evenodd;stroke:#000000;stroke-width:1;stroke-linecap:butt;stroke-linejoin:round" />
    <path
       d="m 361.33829,65.541145 q -0.9375,0.796875 -1.79687,1.125 -0.85938,0.3125 -1.84375,0.3125 -1.60938,0 -2.48438,-0.78125 -0.875,-0.796875 -0.875,-2.03125 0,-0.734379 0.32813,-1.328129 0.32812,-0.59375 0.85937,-0.953125 0.53125,-0.359375 1.20313,-0.546875 0.5,-0.140625 1.48437,-0.25 2.03125,-0.25 2.98438,-0.578125 0,-0.34375 0,-0.4375 0,-1.015625 -0.46875,-1.4375 -0.64063,-0.5625 -1.90625,-0.5625 -1.17188,0 -1.73438,0.40625 -0.5625,0.40625 -0.82812,1.46875 l -1.64063,-0.234375 q 0.23438,-1.046875 0.73438,-1.6875 0.51562,-0.640625 1.46875,-0.984375 0.96875,-0.359375 2.25,-0.359375 1.26562,0 2.04687,0.296875 0.78125,0.296875 1.15625,0.75 0.375,0.453125 0.51563,1.140625 0.0937,0.421875 0.0937,1.53125 v 2.234375 q 0,2.328129 0.0937,2.953129 0.10937,0.609375 0.4375,1.171875 h -1.75 q -0.26563,-0.515625 -0.32813,-1.21875 z m -0.14062,-3.718754 q -0.90625,0.359375 -2.73438,0.625 -1.03125,0.140625 -1.45312,0.328125 -0.42188,0.1875 -0.65625,0.546875 -0.23438,0.359375 -0.23438,0.796879 0,0.671875 0.5,1.125 0.51563,0.4375 1.48438,0.4375 0.96875,0 1.71875,-0.421875 0.75,-0.4375 1.10937,-1.15625 0.26563,-0.578129 0.26563,-1.671879 z m 4.07885,4.937504 v -9.859379 h 1.5 v 1.40625 q 1.09375,-1.625 3.14063,-1.625 0.89062,0 1.64062,0.328125 0.75,0.3125 1.10938,0.84375 0.375,0.515625 0.53125,1.21875 0.0937,0.46875 0.0937,1.625 v 6.062504 h -1.67188 v -6.000004 q 0,-1.015625 -0.20312,-1.515625 -0.1875,-0.515625 -0.6875,-0.8125 -0.5,-0.296875 -1.17188,-0.296875 -1.0625,0 -1.84375,0.671875 -0.76562,0.671875 -0.76562,2.578125 v 5.375004 z m 16.8132,-1.21875 q -0.9375,0.796875 -1.79687,1.125 -0.85938,0.3125 -1.84375,0.3125 -1.60938,0 -2.48438,-0.78125 -0.875,-0.796875 -0.875,-2.03125 0,-0.734379 0.32813,-1.328129 0.32812,-0.59375 0.85937,-0.953125 0.53125,-0.359375 1.20313,-0.546875 0.5,-0.140625 1.48437,-0.25 2.03125,-0.25 2.98438,-0.578125 0,-0.34375 0,-0.4375 0,-1.015625 -0.46875,-1.4375 -0.64063,-0.5625 -1.90625,-0.5625 -1.17188,0 -1.73438,0.40625 -0.5625,0.40625 -0.82812,1.46875 l -1.64063,-0.234375 q 0.23438,-1.046875 0.73438,-1.6875 0.51562,-0.640625 1.46875,-0.984375 0.96875,-0.359375 2.25,-0.359375 1.26562,0 2.04687,0.296875 0.78125,0.296875 1.15625,0.75 0.375,0.453125 0.51563,1.140625 0.0937,0.421875 0.0937,1.53125 v 2.234375 q 0,2.328129 0.0937,2.953129 0.10937,0.609375 0.4375,1.171875 h -1.75 q -0.26563,-0.515625 -0.32813,-1.21875 z m -0.14062,-3.718754 q -0.90625,0.359375 -2.73438,0.625 -1.03125,0.140625 -1.45312,0.328125 -0.42188,0.1875 -0.65625,0.546875 -0.23438,0.359375 -0.23438,0.796879 0,0.671875 0.5,1.125 0.51563,0.4375 1.48438,0.4375 0.96875,0 1.71875,-0.421875 0.75,-0.4375 1.10937,-1.15625 0.26563,-0.578129 0.26563,-1.671879 z m 10.51636,1.328125 1.64062,0.21875 q -0.26562,1.687504 -1.375,2.656254 -1.10937,0.953125 -2.73437,0.953125 -2.01563,0 -3.25,-1.3125 -1.21875,-1.328125 -1.21875,-3.796879 0,-1.59375 0.51562,-2.78125 0.53125,-1.203125 1.60938,-1.796875 1.09375,-0.609375 2.35937,-0.609375 1.60938,0 2.625,0.8125 1.01563,0.8125 1.3125,2.3125 l -1.625,0.25 q -0.23437,-1 -0.82812,-1.5 -0.59375,-0.5 -1.42188,-0.5 -1.26562,0 -2.0625,0.90625 -0.78125,0.90625 -0.78125,2.859375 0,1.984375 0.76563,2.890629 0.76562,0.890625 1.98437,0.890625 0.98438,0 1.64063,-0.59375 0.65625,-0.609375 0.84375,-1.859379 z m 2.26562,-1.3125 q 0,-2.734375 1.53125,-4.0625 1.26563,-1.09375 3.09375,-1.09375 2.03125,0 3.3125,1.34375 1.29688,1.328125 1.29688,3.671875 0,1.90625 -0.57813,3.000004 -0.5625,1.078125 -1.65625,1.6875 -1.07812,0.59375 -2.375,0.59375 -2.0625,0 -3.34375,-1.328125 -1.28125,-1.328125 -1.28125,-3.812504 z m 1.71875,0 q 0,1.890625 0.82813,2.828129 0.82812,0.9375 2.07812,0.9375 1.25,0 2.0625,-0.9375 0.82813,-0.953129 0.82813,-2.890629 0,-1.828125 -0.82813,-2.765625 -0.82812,-0.9375 -2.0625,-0.9375 -1.25,0 -2.07812,0.9375 -0.82813,0.9375 -0.82813,2.828125 z m 9.28195,4.921879 v -9.859379 h 1.5 v 1.40625 q 1.09375,-1.625 3.14063,-1.625 0.89062,0 1.64062,0.328125 0.75,0.3125 1.10938,0.84375 0.375,0.515625 0.53125,1.21875 0.0937,0.46875 0.0937,1.625 v 6.062504 h -1.67188 v -6.000004 q 0,-1.015625 -0.20312,-1.515625 -0.1875,-0.515625 -0.6875,-0.8125 -0.5,-0.296875 -1.17188,-0.296875 -1.0625,0 -1.84375,0.671875 -0.76562,0.671875 -0.76562,2.578125 v 5.375004 z m 16.76636,0 v -1.25 q -0.9375,1.46875 -2.75,1.46875 -1.17187,0 -2.17187,-0.640625 -0.98438,-0.65625 -1.53125,-1.8125 -0.53125,-1.171878 -0.53125,-2.687503 0,-1.46875 0.48437,-2.671875 0.5,-1.203125 1.46875,-1.84375 0.98438,-0.640625 2.20313,-0.640625 0.89062,0 1.57812,0.375 0.70313,0.375 1.14063,0.984375 v -4.875 h 1.65625 v 13.593754 z m -5.28125,-4.921879 q 0,1.890625 0.79688,2.828129 0.8125,0.9375 1.89062,0.9375 1.09375,0 1.85938,-0.890625 0.76562,-0.890629 0.76562,-2.734379 0,-2.015625 -0.78125,-2.953125 -0.78125,-0.953125 -1.92187,-0.953125 -1.10938,0 -1.85938,0.90625 -0.75,0.90625 -0.75,2.859375 z m 15.70383,3.703129 q -0.9375,0.796875 -1.79688,1.125 -0.85937,0.3125 -1.84375,0.3125 -1.60937,0 -2.48437,-0.78125 -0.875,-0.796875 -0.875,-2.03125 0,-0.734379 0.32812,-1.328129 0.32813,-0.59375 0.85938,-0.953125 0.53125,-0.359375 1.20312,-0.546875 0.5,-0.140625 1.48438,-0.25 2.03125,-0.25 2.98437,-0.578125 0,-0.34375 0,-0.4375 0,-1.015625 -0.46875,-1.4375 -0.64062,-0.5625 -1.90625,-0.5625 -1.17187,0 -1.73437,0.40625 -0.5625,0.40625 -0.82813,1.46875 l -1.64062,-0.234375 q 0.23437,-1.046875 0.73437,-1.6875 0.51563,-0.640625 1.46875,-0.984375 0.96875,-0.359375 2.25,-0.359375 1.26563,0 2.04688,0.296875 0.78125,0.296875 1.15625,0.75 0.375,0.453125 0.51562,1.140625 0.0937,0.421875 0.0937,1.53125 v 2.234375 q 0,2.328129 0.0937,2.953129 0.10938,0.609375 0.4375,1.171875 h -1.75 q -0.26562,-0.515625 -0.32812,-1.21875 z m -0.14063,-3.718754 q -0.90625,0.359375 -2.73437,0.625 -1.03125,0.140625 -1.45313,0.328125 -0.42187,0.1875 -0.65625,0.546875 -0.23437,0.359375 -0.23437,0.796879 0,0.671875 0.5,1.125 0.51562,0.4375 1.48437,0.4375 0.96875,0 1.71875,-0.421875 0.75,-0.4375 1.10938,-1.15625 0.26562,-0.578129 0.26562,-1.671879 z"
       id="path137"
       inkscape:connector-curvature="0"
       style="fill:#000000;fill-rule:nonzero" />
    <path
       fill="#000000"
       fill-opacity="0.0"
       d="m345.23227 89.14698l-0.50393677 93.6063"
       fill-rule="evenodd"
       id="path139" />
    <path
       d="m 395.83468,89.74939 -51.07403,87.00397"
       id="path141"
       inkscape:connector-curvature="0"
       style="fill-rule:evenodd;stroke:#000000;stroke-width:1;stroke-linecap:butt;stroke-linejoin:round"
       sodipodi:nodetypes="cc" />
    <path
       fill="#000000"
       stroke="#000000"
       stroke-width="1.0"
       stroke-linecap="butt"
       d="m343.10895 176.74448l1.6272583 4.546921l1.6761475 -4.5291443z"
       fill-rule="evenodd"
       id="path143" />
    <path
       fill="#000000"
       fill-opacity="0.0"
       d="m778.7533 89.14698l-167.93701 227.65356"
       fill-rule="evenodd"
       id="path145" />
    <path
       fill="#000000"
       stroke="#000000"
       stroke-width="1.0"
       stroke-linecap="butt"
       d="m613.0489 310.9916l-1.3647461 4.632477l4.0231934 -2.6714172z"
       fill-rule="evenodd"
       id="path149" />
    <path
       fill="#6fa8dc"
       d="m260.63516 460.60126l0 0c0 -5.3954163 4.3738403 -9.769226 9.769226 -9.769226l148.65054 0c2.5909424 0 5.0758057 1.0292358 6.9078674 2.8613281c1.8320923 1.8320923 2.8613586 4.316925 2.8613586 6.907898l0 39.075714c0 5.3953857 -4.3738403 9.769226 -9.769226 9.769226l-148.65054 0c-5.3953857 0 -9.769226 -4.3738403 -9.769226 -9.769226z"
       fill-rule="evenodd"
       id="path151" />
    <path
       stroke="#000000"
       stroke-width="1.0"
       stroke-linejoin="round"
       stroke-linecap="butt"
       d="m260.63516 460.60126l0 0c0 -5.3954163 4.3738403 -9.769226 9.769226 -9.769226l148.65054 0c2.5909424 0 5.0758057 1.0292358 6.9078674 2.8613281c1.8320923 1.8320923 2.8613586 4.316925 2.8613586 6.907898l0 39.075714c0 5.3953857 -4.3738403 9.769226 -9.769226 9.769226l-148.65054 0c-5.3953857 0 -9.769226 -4.3738403 -9.769226 -9.769226z"
       fill-rule="evenodd"
       id="path153" />
    <path
       fill="#000000"
       d="m282.18192 487.0591l0 -13.59375l1.671875 0l0 13.59375l-1.671875 0zm4.1917114 -11.6875l0 -1.90625l1.671875 0l0 1.90625l-1.671875 0zm0 11.6875l0 -9.859375l1.671875 0l0 9.859375l-1.671875 0zm5.676056 0l-1.546875 0l0 -13.59375l1.65625 0l0 4.84375q1.0625 -1.328125 2.703125 -1.328125q0.90625 0 1.71875 0.375q0.8125 0.359375 1.328125 1.03125q0.53125 0.65625 0.828125 1.59375q0.296875 0.9375 0.296875 2.0q0 2.53125 -1.25 3.921875q-1.25 1.375 -3.0 1.375q-1.75 0 -2.734375 -1.453125l0 1.234375zm-0.015625 -5.0q0 1.765625 0.46875 2.5625q0.796875 1.28125 2.140625 1.28125q1.09375 0 1.890625 -0.9375q0.796875 -0.953125 0.796875 -2.84375q0 -1.921875 -0.765625 -2.84375q-0.765625 -0.921875 -1.84375 -0.921875q-1.09375 0 -1.890625 0.953125q-0.796875 0.953125 -0.796875 2.75zm8.172607 2.0625l1.65625 -0.265625q0.140625 1.0 0.765625 1.53125q0.640625 0.515625 1.78125 0.515625q1.15625 0 1.703125 -0.46875q0.5625 -0.46875 0.5625 -1.09375q0 -0.5625 -0.484375 -0.890625q-0.34375 -0.21875 -1.703125 -0.5625q-1.84375 -0.46875 -2.5625 -0.796875q-0.703125 -0.34375 -1.078125 -0.9375q-0.359375 -0.609375 -0.359375 -1.328125q0 -0.65625 0.296875 -1.21875q0.3125 -0.5625 0.828125 -0.9375q0.390625 -0.28125 1.0625 -0.484375q0.671875 -0.203125 1.4375 -0.203125q1.171875 0 2.046875 0.34375q0.875 0.328125 1.28125 0.90625q0.421875 0.5625 0.578125 1.515625l-1.625 0.21875q-0.109375 -0.75 -0.65625 -1.171875q-0.53125 -0.4375 -1.5 -0.4375q-1.15625 0 -1.640625 0.390625q-0.484375 0.375 -0.484375 0.875q0 0.328125 0.203125 0.59375q0.203125 0.265625 0.640625 0.4375q0.25 0.09375 1.46875 0.4375q1.765625 0.46875 2.46875 0.765625q0.703125 0.296875 1.09375 0.875q0.40625 0.578125 0.40625 1.4375q0 0.828125 -0.484375 1.578125q-0.484375 0.734375 -1.40625 1.140625q-0.921875 0.390625 -2.078125 0.390625q-1.921875 0 -2.9375 -0.796875q-1.0 -0.796875 -1.28125 -2.359375zm13.65625 1.4375l0.234375 1.484375q-0.703125 0.140625 -1.265625 0.140625q-0.90625 0 -1.40625 -0.28125q-0.5 -0.296875 -0.703125 -0.75q-0.203125 -0.46875 -0.203125 -1.984375l0 -5.65625l-1.234375 0l0 -1.3125l1.234375 0l0 -2.4375l1.65625 -1.0l0 3.4375l1.6875 0l0 1.3125l-1.6875 0l0 5.75q0 0.71875 0.078125 0.921875q0.09375 0.203125 0.296875 0.328125q0.203125 0.125 0.578125 0.125q0.265625 0 0.734375 -0.078125zm0.9020386 -3.421875q0 -2.734375 1.53125 -4.0625q1.265625 -1.09375 3.09375 -1.09375q2.03125 0 3.3125 1.34375q1.296875 1.328125 1.296875 3.671875q0 1.90625 -0.578125 3.0q-0.5625 1.078125 -1.65625 1.6875q-1.078125 0.59375 -2.375 0.59375q-2.0625 0 -3.34375 -1.328125q-1.28125 -1.328125 -1.28125 -3.8125zm1.71875 0q0 1.890625 0.828125 2.828125q0.828125 0.9375 2.078125 0.9375q1.25 0 2.0625 -0.9375q0.828125 -0.953125 0.828125 -2.890625q0 -1.828125 -0.828125 -2.765625q-0.828125 -0.9375 -2.0625 -0.9375q-1.25 0 -2.078125 0.9375q-0.828125 0.9375 -0.828125 2.828125zm9.266357 4.921875l0 -9.859375l1.5 0l0 1.5q0.578125 -1.046875 1.0625 -1.375q0.484375 -0.34375 1.078125 -0.34375q0.84375 0 1.71875 0.546875l-0.578125 1.546875q-0.609375 -0.359375 -1.234375 -0.359375q-0.546875 0 -0.984375 0.328125q-0.421875 0.328125 -0.609375 0.90625q-0.28125 0.890625 -0.28125 1.953125l0 5.15625l-1.671875 0zm12.665802 -1.21875q-0.9375 0.796875 -1.796875 1.125q-0.859375 0.3125 -1.84375 0.3125q-1.609375 0 -2.484375 -0.78125q-0.875 -0.796875 -0.875 -2.03125q0 -0.734375 0.328125 -1.328125q0.328125 -0.59375 0.859375 -0.953125q0.53125 -0.359375 1.203125 -0.546875q0.5 -0.140625 1.484375 -0.25q2.03125 -0.25 2.984375 -0.578125q0 -0.34375 0 -0.4375q0 -1.015625 -0.46875 -1.4375q-0.640625 -0.5625 -1.90625 -0.5625q-1.171875 0 -1.734375 0.40625q-0.5625 0.40625 -0.828125 1.46875l-1.640625 -0.234375q0.234375 -1.046875 0.734375 -1.6875q0.515625 -0.640625 1.46875 -0.984375q0.96875 -0.359375 2.25 -0.359375q1.265625 0 2.046875 0.296875q0.78125 0.296875 1.15625 0.75q0.375 0.453125 0.515625 1.140625q0.09375 0.421875 0.09375 1.53125l0 2.234375q0 2.328125 0.09375 2.953125q0.109375 0.609375 0.4375 1.171875l-1.75 0q-0.265625 -0.515625 -0.328125 -1.21875zm-0.140625 -3.71875q-0.90625 0.359375 -2.734375 0.625q-1.03125 0.140625 -1.453125 0.328125q-0.421875 0.1875 -0.65625 0.546875q-0.234375 0.359375 -0.234375 0.796875q0 0.671875 0.5 1.125q0.515625 0.4375 1.484375 0.4375q0.96875 0 1.71875 -0.421875q0.75 -0.4375 1.109375 -1.15625q0.265625 -0.578125 0.265625 -1.671875l0 -0.609375zm3.781952 5.75l1.609375 0.25q0.109375 0.75 0.578125 1.09375q0.609375 0.453125 1.6875 0.453125q1.171875 0 1.796875 -0.46875q0.625 -0.453125 0.859375 -1.28125q0.125 -0.515625 0.109375 -2.15625q-1.09375 1.296875 -2.71875 1.296875q-2.03125 0 -3.15625 -1.46875q-1.109375 -1.46875 -1.109375 -3.515625q0 -1.40625 0.515625 -2.59375q0.515625 -1.203125 1.484375 -1.84375q0.96875 -0.65625 2.265625 -0.65625q1.75 0 2.875 1.40625l0 -1.1875l1.546875 0l0 8.515625q0 2.3125 -0.46875 3.265625q-0.46875 0.96875 -1.484375 1.515625q-1.015625 0.5625 -2.5 0.5625q-1.765625 0 -2.859375 -0.796875q-1.078125 -0.796875 -1.03125 -2.390625zm1.375 -5.921875q0 1.953125 0.765625 2.84375q0.78125 0.890625 1.9375 0.890625q1.140625 0 1.921875 -0.890625q0.78125 -0.890625 0.78125 -2.78125q0 -1.8125 -0.8125 -2.71875q-0.796875 -0.921875 -1.921875 -0.921875q-1.109375 0 -1.890625 0.90625q-0.78125 0.890625 -0.78125 2.671875zm16.047607 1.9375l1.71875 0.21875q-0.40625 1.5 -1.515625 2.34375q-1.09375 0.828125 -2.8125 0.828125q-2.15625 0 -3.421875 -1.328125q-1.265625 -1.328125 -1.265625 -3.734375q0 -2.484375 1.265625 -3.859375q1.28125 -1.375 3.328125 -1.375q1.984375 0 3.234375 1.34375q1.25 1.34375 1.25 3.796875q0 0.140625 -0.015625 0.4375l-7.34375 0q0.09375 1.625 0.921875 2.484375q0.828125 0.859375 2.0625 0.859375q0.90625 0 1.546875 -0.46875q0.65625 -0.484375 1.046875 -1.546875zm-5.484375 -2.703125l5.5 0q-0.109375 -1.234375 -0.625 -1.859375q-0.796875 -0.96875 -2.078125 -0.96875q-1.140625 0 -1.9375 0.78125q-0.78125 0.765625 -0.859375 2.046875zm9.110077 5.875l0 -9.859375l1.5 0l0 1.390625q0.453125 -0.71875 1.21875 -1.15625q0.78125 -0.453125 1.765625 -0.453125q1.09375 0 1.796875 0.453125q0.703125 0.453125 0.984375 1.28125q1.171875 -1.734375 3.046875 -1.734375q1.46875 0 2.25 0.8125q0.796875 0.8125 0.796875 2.5l0 6.765625l-1.671875 0l0 -6.203125q0 -1.0 -0.15625 -1.4375q-0.15625 -0.453125 -0.59375 -0.71875q-0.421875 -0.265625 -1.0 -0.265625q-1.03125 0 -1.71875 0.6875q-0.6875 0.6875 -0.6875 2.21875l0 5.71875l-1.671875 0l0 -6.40625q0 -1.109375 -0.40625 -1.65625q-0.40625 -0.5625 -1.34375 -0.5625q-0.703125 0 -1.3125 0.375q-0.59375 0.359375 -0.859375 1.078125q-0.265625 0.71875 -0.265625 2.0625l0 5.109375l-1.671875 0zm15.243927 0.8125l1.609375 0.25q0.109375 0.75 0.578125 1.09375q0.609375 0.453125 1.6875 0.453125q1.171875 0 1.796875 -0.46875q0.625 -0.453125 0.859375 -1.28125q0.125 -0.515625 0.109375 -2.15625q-1.09375 1.296875 -2.71875 1.296875q-2.03125 0 -3.15625 -1.46875q-1.109375 -1.46875 -1.109375 -3.515625q0 -1.40625 0.515625 -2.59375q0.515625 -1.203125 1.484375 -1.84375q0.96875 -0.65625 2.265625 -0.65625q1.75 0 2.875 1.40625l0 -1.1875l1.546875 0l0 8.515625q0 2.3125 -0.46875 3.265625q-0.46875 0.96875 -1.484375 1.515625q-1.015625 0.5625 -2.5 0.5625q-1.765625 0 -2.859375 -0.796875q-1.078125 -0.796875 -1.03125 -2.390625zm1.375 -5.921875q0 1.953125 0.765625 2.84375q0.78125 0.890625 1.9375 0.890625q1.140625 0 1.921875 -0.890625q0.78125 -0.890625 0.78125 -2.78125q0 -1.8125 -0.8125 -2.71875q-0.796875 -0.921875 -1.921875 -0.921875q-1.109375 0 -1.890625 0.90625q-0.78125 0.890625 -0.78125 2.671875zm9.297607 5.109375l0 -9.859375l1.5 0l0 1.390625q0.453125 -0.71875 1.21875 -1.15625q0.78125 -0.453125 1.765625 -0.453125q1.09375 0 1.796875 0.453125q0.703125 0.453125 0.984375 1.28125q1.171875 -1.734375 3.046875 -1.734375q1.46875 0 2.25 0.8125q0.796875 0.8125 0.796875 2.5l0 6.765625l-1.671875 0l0 -6.203125q0 -1.0 -0.15625 -1.4375q-0.15625 -0.453125 -0.59375 -0.71875q-0.421875 -0.265625 -1.0 -0.265625q-1.03125 0 -1.71875 0.6875q-0.6875 0.6875 -0.6875 2.21875l0 5.71875l-1.671875 0l0 -6.40625q0 -1.109375 -0.40625 -1.65625q-0.40625 -0.5625 -1.34375 -0.5625q-0.703125 0 -1.3125 0.375q-0.59375 0.359375 -0.859375 1.078125q-0.265625 0.71875 -0.265625 2.0625l0 5.109375l-1.671875 0zm19.197052 -1.5l0.234375 1.484375q-0.703125 0.140625 -1.265625 0.140625q-0.90625 0 -1.40625 -0.28125q-0.5 -0.296875 -0.703125 -0.75q-0.203125 -0.46875 -0.203125 -1.984375l0 -5.65625l-1.234375 0l0 -1.3125l1.234375 0l0 -2.4375l1.65625 -1.0l0 3.4375l1.6875 0l0 1.3125l-1.6875 0l0 5.75q0 0.71875 0.078125 0.921875q0.09375 0.203125 0.296875 0.328125q0.203125 0.125 0.578125 0.125q0.265625 0 0.734375 -0.078125z"
       fill-rule="nonzero"
       id="path155" />
    <path
       fill="#000000"
       fill-opacity="0.0"
       d="m610.8294 375.40683l-266.11026 75.433075"
       fill-rule="evenodd"
       id="path157" />
    <path
       stroke="#000000"
       stroke-width="1.0"
       stroke-linejoin="round"
       stroke-linecap="butt"
       d="m610.8294 375.40683l-260.33768 73.79675"
       fill-rule="evenodd"
       id="path159" />
    <path
       fill="#000000"
       stroke="#000000"
       stroke-width="1.0"
       stroke-linecap="butt"
       d="m350.04126 447.61444l-3.915619 2.8267517l4.8165283 0.35150146z"
       fill-rule="evenodd"
       id="path161" />
    <path
       fill="#000000"
       fill-opacity="0.0"
       d="m344.72964 241.35564l0 209.48033"
       fill-rule="evenodd"
       id="path163" />
    <path
       stroke="#000000"
       stroke-width="1.0"
       stroke-linejoin="round"
       stroke-linecap="butt"
       d="m344.72964 241.35564l0 203.48033"
       fill-rule="evenodd"
       id="path165" />
    <path
       fill="#000000"
       stroke="#000000"
       stroke-width="1.0"
       stroke-linecap="butt"
       d="m343.0779 444.83597l1.6517334 4.538086l1.6517334 -4.538086z"
       fill-rule="evenodd"
       id="path167" />
    <path
       fill="#000000"
       fill-opacity="0.0"
       d="m344.72964 241.35564l266.11026 75.43309"
       fill-rule="evenodd"
       id="path169" />
    <path
       stroke="#000000"
       stroke-width="1.0"
       stroke-linejoin="round"
       stroke-linecap="butt"
       d="m344.72964 241.35564l260.33768 73.79677"
       fill-rule="evenodd"
       id="path171" />
    <path
       fill="#000000"
       stroke="#000000"
       stroke-width="1.0"
       stroke-linecap="butt"
       d="m604.6169 316.74152l4.8165283 -0.35150146l-3.9155884 -2.8267517z"
       fill-rule="evenodd"
       id="path173" />
    <path
       fill="#cfe2f3"
       d="m22.96063 40.302032l0 0c0 -5.3953934 4.373831 -9.769224 9.769224 -9.769224l82.16234 0c2.5909576 0 5.075798 1.0292549 6.9078827 2.8613415c1.8320847 1.8320847 2.8613358 4.316925 2.8613358 6.9078827l0 39.07572c0 5.3953934 -4.373825 9.769226 -9.769218 9.769226l-82.16234 0c-5.3953934 0 -9.769224 -4.3738327 -9.769224 -9.769226z"
       fill-rule="evenodd"
       id="path175" />
    <path
       stroke="#000000"
       stroke-width="1.0"
       stroke-linejoin="round"
       stroke-linecap="butt"
       d="m22.96063 40.302032l0 0c0 -5.3953934 4.373831 -9.769224 9.769224 -9.769224l82.16234 0c2.5909576 0 5.075798 1.0292549 6.9078827 2.8613415c1.8320847 1.8320847 2.8613358 4.316925 2.8613358 6.9078827l0 39.07572c0 5.3953934 -4.373825 9.769226 -9.769218 9.769226l-82.16234 0c-5.3953934 0 -9.769224 -4.3738327 -9.769224 -9.769226z"
       fill-rule="evenodd"
       id="path177" />
    <path
       fill="#000000"
       d="m55.61629 66.759895l0 -13.593754l6.03125 0q1.8125 0 2.7500038 0.359375q0.953125 0.359375 1.515625 1.296875q0.5625 0.921875 0.5625 2.046875q0 1.453125 -0.9375 2.453125q-0.921875 0.984375 -2.8906288 1.25q0.71875 0.34375 1.09375 0.671875q0.7812538 0.734375 1.4843788 1.8125l2.375 3.7031288l-2.265625 0l-1.7968788 -2.8281288q-0.796875 -1.21875 -1.3125 -1.875q-0.5 -0.65625 -0.90625 -0.90625q-0.40625 -0.265625 -0.8125 -0.359375q-0.3125 -0.078125 -1.015625 -0.078125l-2.078125 0l0 6.046879l-1.796875 0zm1.796875 -7.593754l3.859375 0q1.234375 0 1.921875 -0.25q0.703125 -0.265625 1.0625038 -0.828125q0.375 -0.5625 0.375 -1.21875q0 -0.96875 -0.7031288 -1.578125q-0.703125 -0.625 -2.21875 -0.625l-4.296875 0l0 4.5zm11.6917 7.593754l0 -13.593754l1.8125 0l0 5.578125l7.0625 0l0 -5.578125l1.796875 0l0 13.593754l-1.796875 0l0 -6.406254l-7.0625 0l0 6.406254l-1.8125 0zm12.816696 -4.375004l1.6875 -0.140625q0.125 1.015625 0.5625 1.671875q0.4375 0.6562538 1.359375 1.0625038q0.9375 0.40625 2.09375 0.40625q1.03125 0 1.8125 -0.3125q0.796875 -0.3125 1.1875 -0.84375q0.390625 -0.5312538 0.390625 -1.1562538q0 -0.640625 -0.375 -1.109375q-0.375 -0.484375 -1.234375 -0.8125q-0.546875 -0.21875 -2.421875 -0.65625q-1.875 -0.453125 -2.625 -0.859375q-0.96875 -0.515625 -1.453125 -1.265625q-0.46875 -0.75 -0.46875 -1.6875q0 -1.03125 0.578125 -1.921875q0.59375 -0.90625 1.703125 -1.359375q1.125 -0.46875 2.5 -0.46875q1.515625 0 2.671875 0.484375q1.15625 0.484375 1.765625 1.4375q0.625 0.9375 0.671875 2.140625l-1.71875 0.125q-0.140625 -1.28125 -0.953125 -1.9375q-0.796875 -0.671875 -2.359375 -0.671875q-1.625 0 -2.375 0.609375q-0.75 0.59375 -0.75 1.4375q0 0.734375 0.53125 1.203125q0.515625 0.46875 2.703125 0.96875q2.203125 0.5 3.015625 0.875q1.1875 0.546875 1.75 1.390625q0.578125 0.828125 0.578125 1.921875q0 1.0937538 -0.625 2.0625038q-0.625 0.953125 -1.796875 1.484375q-1.15625 0.53125 -2.609375 0.53125q-1.84375 0 -3.09375 -0.53125q-1.25 -0.546875 -1.96875 -1.625q-0.703125 -1.0781288 -0.734375 -2.4531288z"
       fill-rule="nonzero"
       id="path179" />
    <path
       fill="#000000"
       fill-opacity="0.0"
       d="m73.81102 89.14698l270.92914 361.7008"
       fill-rule="evenodd"
       id="path181" />
    <path
       stroke="#000000"
       stroke-width="1.0"
       stroke-linejoin="round"
       stroke-linecap="butt"
       d="m73.81102 89.14698l267.3321 356.8986"
       fill-rule="evenodd"
       id="path183" />
    <path
       fill="#000000"
       stroke="#000000"
       stroke-width="1.0"
       stroke-linecap="butt"
       d="m339.8211 447.0358l4.042633 2.6419067l-1.3986511 -4.6223755z"
       fill-rule="evenodd"
       id="path185" />
    <path
       fill="#000000"
       fill-opacity="0.0"
       d="m73.81102 89.14698l270.92914 93.6063"
       fill-rule="evenodd"
       id="path187" />
    <path
       stroke="#000000"
       stroke-width="1.0"
       stroke-linejoin="round"
       stroke-linecap="butt"
       d="m73.81102 89.14698l265.25806 91.646935"
       fill-rule="evenodd"
       id="path189" />
    <path
       fill="#000000"
       stroke="#000000"
       stroke-width="1.0"
       stroke-linecap="butt"
       d="m338.52972 182.3551l4.8286743 -0.07922363l-3.7499084 -3.0431366z"
       fill-rule="evenodd"
       id="path191" />
    <path
       fill="#cfe2f3"
       d="m850.4094 40.302032l0 0c0 -5.3953934 4.3738403 -9.769224 9.769226 -9.769224l64.93402 0c2.5909424 0 5.0758057 1.0292549 6.907898 2.8613415c1.8320923 1.8320847 2.8613281 4.316925 2.8613281 6.9078827l0 39.07572c0 5.3953934 -4.3738403 9.769226 -9.769226 9.769226l-64.93402 0c-5.3953857 0 -9.769226 -4.3738327 -9.769226 -9.769226z"
       fill-rule="evenodd"
       id="path193" />
    <path
       stroke="#000000"
       stroke-width="1.0"
       stroke-linejoin="round"
       stroke-linecap="butt"
       d="m850.4094 40.302032l0 0c0 -5.3953934 4.3738403 -9.769224 9.769226 -9.769224l64.93402 0c2.5909424 0 5.0758057 1.0292549 6.907898 2.8613415c1.8320923 1.8320847 2.8613281 4.316925 2.8613281 6.9078827l0 39.07572c0 5.3953934 -4.3738403 9.769226 -9.769226 9.769226l-64.93402 0c-5.3953857 0 -9.769226 -4.3738327 -9.769226 -9.769226z"
       fill-rule="evenodd"
       id="path195" />
    <path
       fill="#000000"
       fill-opacity="0.0"
       d="m892.6457 89.14698l-281.82678 361.7008"
       fill-rule="evenodd"
       id="path199" />
    <path
       stroke="#000000"
       stroke-width="1.0"
       stroke-linejoin="round"
       stroke-linecap="butt"
       d="m892.6457 89.14698l-278.13904 356.9679"
       fill-rule="evenodd"
       id="path201"
       style="stroke-width:1;stroke-miterlimit:10;stroke-dasharray:4,3;stroke-dashoffset:0" />
    <path
       fill="#000000"
       stroke="#000000"
       stroke-width="1.0"
       stroke-linecap="butt"
       d="m613.20374 445.09967l-1.4863281 4.5949097l4.092163 -2.5645447z"
       fill-rule="evenodd"
       id="path203" />
    <path
       fill="#000000"
       fill-opacity="0.0"
       d="m652.1037 89.14698l-307.37012 93.6063"
       fill-rule="evenodd"
       id="path205" />
    <path
       d="M 747.88683,89.74939 350.47336,181.00531"
       id="path207"
       inkscape:connector-curvature="0"
       style="fill-rule:evenodd;stroke:#000000;stroke-width:1;stroke-linecap:butt;stroke-linejoin:round;stroke-dasharray:4, 3"
       sodipodi:nodetypes="cc" />
    <path
       fill="#000000"
       stroke="#000000"
       stroke-width="1.0"
       stroke-linecap="butt"
       d="m349.99213 179.42522l-3.8600464 2.902176l4.8224487 0.2579956z"
       fill-rule="evenodd"
       id="path209" />
    <path
       d="m 512.49398,40.302032 v 0 c 0,-5.395393 4.37384,-9.769224 9.76922,-9.769224 h 109.15448 c 2.59094,0 5.07581,1.029255 6.9079,2.861341 1.83203,1.832085 2.86133,4.316925 2.86133,6.907883 v 39.07572 c 0,5.395394 -4.37384,9.769226 -9.76923,9.769226 H 522.2632 c -5.39538,0 -9.76922,-4.373832 -9.76922,-9.769226 z"
       id="path211"
       inkscape:connector-curvature="0"
       style="fill:#cfe2f3;fill-rule:evenodd" />
    <path
       d="m 512.49398,40.302032 v 0 c 0,-5.395393 4.37384,-9.769224 9.76922,-9.769224 h 109.15448 c 2.59094,0 5.07581,1.029255 6.9079,2.861341 1.83203,1.832085 2.86133,4.316925 2.86133,6.907883 v 39.07572 c 0,5.395394 -4.37384,9.769226 -9.76923,9.769226 H 522.2632 c -5.39538,0 -9.76922,-4.373832 -9.76922,-9.769226 z"
       id="path213"
       inkscape:connector-curvature="0"
       style="fill-rule:evenodd;stroke:#000000;stroke-width:1;stroke-linecap:butt;stroke-linejoin:round" />
    <path
       d="m 529.85368,66.759895 v -9.859379 h 1.5 v 1.5 q 0.57812,-1.046875 1.0625,-1.375 0.48437,-0.34375 1.07812,-0.34375 0.84375,0 1.71875,0.546875 l -0.57812,1.546875 q -0.60938,-0.359375 -1.23438,-0.359375 -0.54687,0 -0.98437,0.328125 -0.42188,0.328125 -0.60938,0.90625 -0.28125,0.890625 -0.28125,1.953125 v 5.156254 z m 6.2283,0 V 53.166141 h 1.67187 v 4.875 q 1.17188,-1.359375 2.95313,-1.359375 1.09375,0 1.89062,0.4375 0.8125,0.421875 1.15625,1.1875 0.35938,0.765625 0.35938,2.203125 v 6.250004 h -1.67188 v -6.250004 q 0,-1.25 -0.54687,-1.8125 -0.54688,-0.578125 -1.53125,-0.578125 -0.75,0 -1.40625,0.390625 -0.64063,0.375 -0.92188,1.046875 -0.28125,0.65625 -0.28125,1.8125 v 5.390629 z m 17.1257,-3.171879 1.71875,0.21875 q -0.40625,1.500004 -1.51563,2.343754 -1.09375,0.828125 -2.8125,0.828125 -2.15625,0 -3.42187,-1.328125 -1.26563,-1.328125 -1.26563,-3.734379 0,-2.484375 1.26563,-3.859375 1.28125,-1.375 3.32812,-1.375 1.98438,0 3.23438,1.34375 1.25,1.34375 1.25,3.796875 0,0.140625 -0.0156,0.4375 h -7.34375 q 0.0937,1.625 0.92188,2.484379 0.82812,0.859375 2.0625,0.859375 0.90625,0 1.54687,-0.46875 0.65625,-0.484375 1.04688,-1.546879 z m -5.48438,-2.703125 h 5.5 q -0.10937,-1.234375 -0.625,-1.859375 -0.79687,-0.96875 -2.07812,-0.96875 -1.14063,0 -1.9375,0.78125 -0.78125,0.765625 -0.85938,2.046875 z m 9.07886,5.875004 V 53.166141 h 1.67188 v 13.593754 z m 3.53543,-4.078129 v -1.6875 h 5.125 v 1.6875 z m 13.2908,2.859379 q -0.9375,0.796875 -1.79687,1.125 -0.85938,0.3125 -1.84375,0.3125 -1.60938,0 -2.48438,-0.78125 -0.875,-0.796875 -0.875,-2.03125 0,-0.734379 0.32813,-1.328129 0.32812,-0.59375 0.85937,-0.953125 0.53125,-0.359375 1.20313,-0.546875 0.5,-0.140625 1.48437,-0.25 2.03125,-0.25 2.98438,-0.578125 0,-0.34375 0,-0.4375 0,-1.015625 -0.46875,-1.4375 -0.64063,-0.5625 -1.90625,-0.5625 -1.17188,0 -1.73438,0.40625 -0.5625,0.40625 -0.82812,1.46875 l -1.64063,-0.234375 q 0.23438,-1.046875 0.73438,-1.6875 0.51562,-0.640625 1.46875,-0.984375 0.96875,-0.359375 2.25,-0.359375 1.26562,0 2.04687,0.296875 0.78125,0.296875 1.15625,0.75 0.375,0.453125 0.51563,1.140625 0.0937,0.421875 0.0937,1.53125 v 2.234375 q 0,2.328129 0.0937,2.953129 0.10937,0.609375 0.4375,1.171875 h -1.75 q -0.26563,-0.515625 -0.32813,-1.21875 z m -0.14062,-3.718754 q -0.90625,0.359375 -2.73438,0.625 -1.03125,0.140625 -1.45312,0.328125 -0.42188,0.1875 -0.65625,0.546875 -0.23438,0.359375 -0.23438,0.796879 0,0.671875 0.5,1.125 0.51563,0.4375 1.48438,0.4375 0.96875,0 1.71875,-0.421875 0.75,-0.4375 1.10937,-1.15625 0.26563,-0.578129 0.26563,-1.671879 z m 4.07886,4.937504 v -9.859379 h 1.5 v 1.40625 q 1.09375,-1.625 3.14062,-1.625 0.89063,0 1.64063,0.328125 0.75,0.3125 1.10937,0.84375 0.375,0.515625 0.53125,1.21875 0.0937,0.46875 0.0937,1.625 v 6.062504 h -1.67184 v -6.000004 q 0,-1.015625 -0.20313,-1.515625 -0.1875,-0.515625 -0.6875,-0.8125 -0.5,-0.296875 -1.17187,-0.296875 -1.0625,0 -1.84375,0.671875 -0.76563,0.671875 -0.76563,2.578125 v 5.375004 z m 9.70382,-2.937504 1.65625,-0.265625 q 0.14063,1.000004 0.76563,1.531254 0.64062,0.515625 1.78125,0.515625 1.15625,0 1.70312,-0.46875 0.5625,-0.46875 0.5625,-1.09375 0,-0.562504 -0.48437,-0.890629 -0.34375,-0.21875 -1.70313,-0.5625 -1.84375,-0.46875 -2.5625,-0.796875 -0.70312,-0.34375 -1.07812,-0.9375 -0.35938,-0.609375 -0.35938,-1.328125 0,-0.65625 0.29688,-1.21875 0.3125,-0.5625 0.82812,-0.9375 0.39063,-0.28125 1.0625,-0.484375 0.67188,-0.203125 1.4375,-0.203125 1.17188,0 2.04688,0.34375 0.875,0.328125 1.28125,0.90625 0.42187,0.5625 0.57812,1.515625 l -1.625,0.21875 q -0.10937,-0.75 -0.65625,-1.171875 -0.53125,-0.4375 -1.5,-0.4375 -1.15625,0 -1.64062,0.390625 -0.48438,0.375 -0.48438,0.875 0,0.328125 0.20313,0.59375 0.20312,0.265625 0.64062,0.4375 0.25,0.09375 1.46875,0.4375 1.76563,0.46875 2.46875,0.765625 0.70313,0.296875 1.09375,0.875 0.40625,0.578125 0.40625,1.4375 0,0.828129 -0.48437,1.578129 -0.48438,0.734375 -1.40625,1.140625 -0.92188,0.390625 -2.07813,0.390625 -1.92187,0 -2.9375,-0.796875 -1,-0.796875 -1.28125,-2.359379 z m 10.01563,-8.75 v -1.90625 h 1.67187 v 1.90625 z m 0,11.687504 v -9.859379 h 1.67187 v 9.859379 z m 5.67609,0 h -1.54688 V 53.166141 h 1.65625 v 4.84375 q 1.0625,-1.328125 2.70313,-1.328125 0.90625,0 1.71875,0.375 0.8125,0.359375 1.32812,1.03125 0.53125,0.65625 0.82813,1.59375 0.29687,0.9375 0.29687,2 0,2.531254 -1.25,3.921879 -1.25,1.375 -3,1.375 -1.75,0 -2.73437,-1.453125 z m -0.0156,-5.000004 q 0,1.765625 0.46875,2.562504 0.79688,1.28125 2.14063,1.28125 1.09375,0 1.89062,-0.9375 0.79688,-0.953129 0.79688,-2.843754 0,-1.921875 -0.76563,-2.84375 -0.76562,-0.921875 -1.84375,-0.921875 -1.09375,0 -1.89062,0.953125 -0.79688,0.953125 -0.79688,2.75 z m 8.81323,5.000004 V 53.166141 h 1.67188 v 13.593754 z m 10.92603,-3.171878 1.71875,0.21875 q -0.40625,1.500003 -1.51563,2.343753 -1.09375,0.828125 -2.8125,0.828125 -2.15625,0 -3.42187,-1.328125 -1.26563,-1.328125 -1.26563,-3.734378 0,-2.484375 1.26563,-3.859375 1.28125,-1.375 3.32812,-1.375 1.98438,0 3.23438,1.34375 1.25,1.34375 1.25,3.796875 0,0.140625 -0.0156,0.4375 h -7.34375 q 0.0937,1.625 0.92188,2.484378 0.82812,0.859375 2.0625,0.859375 0.90625,0 1.54687,-0.46875 0.65625,-0.484375 1.04688,-1.546878 z m -5.48438,-2.703125 h 5.5 q -0.10937,-1.234375 -0.625,-1.859375 -0.79687,-0.96875 -2.07812,-0.96875 -1.14063,0 -1.9375,0.78125 -0.78125,0.765625 -0.85938,2.046875 z"
       id="path215"
       inkscape:connector-curvature="0"
       style="fill:#000000;fill-rule:nonzero" />
    <path
       fill="#000000"
       fill-opacity="0.0"
       d="m503.34647 89.14698l-158.6142 93.6063"
       fill-rule="evenodd"
       id="path217" />
    <path
       d="M 576.84045,88.54457 349.89957,179.7038"
       id="path219"
       inkscape:connector-curvature="0"
       style="fill-rule:evenodd;stroke:#000000;stroke-width:1;stroke-linecap:butt;stroke-linejoin:round;stroke-dasharray:4, 3"
       sodipodi:nodetypes="cc" />
    <path
       fill="#000000"
       stroke="#000000"
       stroke-width="1.0"
       stroke-linecap="butt"
       d="m349.06006 178.28131l-3.068756 3.7289581l4.7477417 -0.88397217z"
       fill-rule="evenodd"
       id="path221" />
    <path
       fill="#000000"
       fill-opacity="0.0"
       d="m503.34647 89.14698l107.49606 227.65356"
       fill-rule="evenodd"
       id="path223" />
    <path
       d="m 576.84045,88.54457 31.44019,222.83041"
       id="path225"
       inkscape:connector-curvature="0"
       style="fill-rule:evenodd;stroke:#000000;stroke-width:1;stroke-linecap:butt;stroke-linejoin:round;stroke-dasharray:4, 3"
       sodipodi:nodetypes="cc" />
    <path
       fill="#000000"
       stroke="#000000"
       stroke-width="1.0"
       stroke-linecap="butt"
       d="m606.78705 312.08023l3.4312744 3.398346l-0.4440918 -4.8088684z"
       fill-rule="evenodd"
       id="path227" />
    <path
       d="m 177.57534,40.302032 v 0 c 0,-5.395393 4.37384,-9.769224 9.76922,-9.769224 h 77.84738 c 2.59096,0 5.07581,1.029255 6.90788,2.861341 1.8321,1.832085 2.86135,4.316925 2.86135,6.907883 v 39.07572 c 0,5.395394 -4.37383,9.769226 -9.76923,9.769226 h -77.84738 c -5.39538,0 -9.76922,-4.373832 -9.76922,-9.769226 z"
       id="path229"
       inkscape:connector-curvature="0"
       style="fill:#cfe2f3;fill-rule:evenodd" />
    <path
       d="m 177.57534,40.302032 v 0 c 0,-5.395393 4.37384,-9.769224 9.76922,-9.769224 h 77.84738 c 2.59096,0 5.07581,1.029255 6.90788,2.861341 1.8321,1.832085 2.86135,4.316925 2.86135,6.907883 v 39.07572 c 0,5.395394 -4.37383,9.769226 -9.76923,9.769226 h -77.84738 c -5.39538,0 -9.76922,-4.373832 -9.76922,-9.769226 z"
       id="path231"
       inkscape:connector-curvature="0"
       style="fill-rule:evenodd;stroke:#000000;stroke-width:1;stroke-linecap:butt;stroke-linejoin:round" />
    <path
       d="m 207.96625,66.759895 -3.75,-9.859379 h 1.76562 l 2.125,5.90625 q 0.34375,0.953125 0.625,1.984379 0.21875,-0.78125 0.625,-1.875004 l 2.1875,-6.015625 h 1.71875 l -3.73437,9.859379 z m 12.98437,0 v -1.25 q -0.9375,1.46875 -2.75,1.46875 -1.17187,0 -2.17187,-0.640625 -0.98438,-0.65625 -1.53125,-1.8125 -0.53125,-1.171879 -0.53125,-2.687504 0,-1.46875 0.48437,-2.671875 0.5,-1.203125 1.46875,-1.84375 0.98438,-0.640625 2.20313,-0.640625 0.89062,0 1.57812,0.375 0.70313,0.375 1.14063,0.984375 v -4.875 h 1.65625 v 13.593754 z m -5.28125,-4.921879 q 0,1.890625 0.79688,2.828129 0.8125,0.9375 1.89062,0.9375 1.09375,0 1.85938,-0.890625 0.76562,-0.890629 0.76562,-2.734379 0,-2.015625 -0.78125,-2.953125 -0.78125,-0.953125 -1.92187,-0.953125 -1.10938,0 -1.85938,0.90625 -0.75,0.90625 -0.75,2.859375 z m 8.59447,1.984375 1.65625,-0.265625 q 0.14062,1.000004 0.76562,1.531254 0.64063,0.515625 1.78125,0.515625 1.15625,0 1.70313,-0.46875 0.5625,-0.46875 0.5625,-1.09375 0,-0.562504 -0.48438,-0.890629 -0.34375,-0.21875 -1.70312,-0.5625 -1.84375,-0.46875 -2.5625,-0.796875 -0.70313,-0.34375 -1.07813,-0.9375 -0.35937,-0.609375 -0.35937,-1.328125 0,-0.65625 0.29687,-1.21875 0.3125,-0.5625 0.82813,-0.9375 0.39062,-0.28125 1.0625,-0.484375 0.67187,-0.203125 1.4375,-0.203125 1.17187,0 2.04687,0.34375 0.875,0.328125 1.28125,0.90625 0.42188,0.5625 0.57813,1.515625 l -1.625,0.21875 q -0.10938,-0.75 -0.65625,-1.171875 -0.53125,-0.4375 -1.5,-0.4375 -1.15625,0 -1.64063,0.390625 -0.48437,0.375 -0.48437,0.875 0,0.328125 0.20312,0.59375 0.20313,0.265625 0.64063,0.4375 0.25,0.09375 1.46875,0.4375 1.76562,0.46875 2.46875,0.765625 0.70312,0.296875 1.09375,0.875 0.40625,0.578125 0.40625,1.4375 0,0.828129 -0.48438,1.578129 -0.48437,0.734375 -1.40625,1.140625 -0.92187,0.390625 -2.07812,0.390625 -1.92188,0 -2.9375,-0.796875 -1,-0.796875 -1.28125,-2.359379 z m 10,2.937504 v -9.859379 h 1.5 v 1.390625 q 0.45312,-0.71875 1.21875,-1.15625 0.78125,-0.453125 1.76562,-0.453125 1.09375,0 1.79688,0.453125 0.70312,0.453125 0.98437,1.28125 1.17188,-1.734375 3.04688,-1.734375 1.46875,0 2.25,0.8125 0.79687,0.8125 0.79687,2.5 v 6.765629 h -1.67187 v -6.203129 q 0,-1 -0.15625,-1.4375 -0.15625,-0.453125 -0.59375,-0.71875 -0.42188,-0.265625 -1,-0.265625 -1.03125,0 -1.71875,0.6875 -0.6875,0.6875 -0.6875,2.21875 v 5.718754 h -1.67188 v -6.406254 q 0,-1.109375 -0.40625,-1.65625 -0.40625,-0.5625 -1.34375,-0.5625 -0.70312,0 -1.3125,0.375 -0.59375,0.359375 -0.85937,1.078125 -0.26563,0.71875 -0.26563,2.0625 v 5.109379 z"
       id="path233"
       inkscape:connector-curvature="0"
       style="fill:#000000;fill-rule:nonzero" />
    <path
       fill="#000000"
       fill-opacity="0.0"
       d="m202.77428 89.14698l141.95274 93.6063"
       fill-rule="evenodd"
       id="path235" />
    <path
       d="m 226.26826,89.74939 113.44976,89.70087"
       id="path237"
       inkscape:connector-curvature="0"
       style="fill-rule:evenodd;stroke:#000000;stroke-width:1;stroke-linecap:butt;stroke-linejoin:round"
       sodipodi:nodetypes="cc" />
    <path
       fill="#000000"
       stroke="#000000"
       stroke-width="1.0"
       stroke-linecap="butt"
       d="m338.80875 180.82918l4.6978455 1.1193237l-2.8792725 -3.8771667z"
       fill-rule="evenodd"
       id="path239" />
    <path
       d="m 877.25738,63.82239 1.65625,-0.265625 q 0.14063,1.000004 0.76563,1.531254 0.64062,0.515625 1.78125,0.515625 1.15625,0 1.70312,-0.46875 0.5625,-0.46875 0.5625,-1.09375 0,-0.562504 -0.48437,-0.890629 -0.34375,-0.21875 -1.70313,-0.5625 -1.84375,-0.46875 -2.5625,-0.796875 -0.70312,-0.34375 -1.07812,-0.9375 -0.35938,-0.609375 -0.35938,-1.328125 0,-0.65625 0.29688,-1.21875 0.3125,-0.5625 0.82812,-0.9375 0.39063,-0.28125 1.0625,-0.484375 0.67188,-0.203125 1.4375,-0.203125 1.17188,0 2.04688,0.34375 0.875,0.328125 1.28125,0.90625 0.42187,0.5625 0.57812,1.515625 l -1.625,0.21875 q -0.10937,-0.75 -0.65625,-1.171875 -0.53125,-0.4375 -1.5,-0.4375 -1.15625,0 -1.64062,0.390625 -0.48438,0.375 -0.48438,0.875 0,0.328125 0.20313,0.59375 0.20312,0.265625 0.64062,0.4375 0.25,0.09375 1.46875,0.4375 1.76563,0.46875 2.46875,0.765625 0.70313,0.296875 1.09375,0.875 0.40625,0.578125 0.40625,1.4375 0,0.828129 -0.48437,1.578129 -0.48438,0.734375 -1.40625,1.140625 -0.92188,0.390625 -2.07813,0.390625 -1.92187,0 -2.9375,-0.796875 -1,-0.796875 -1.28125,-2.359379 z m 9.32813,0 1.65625,-0.265625 q 0.14062,1.000004 0.76562,1.531254 0.64063,0.515625 1.78125,0.515625 1.15625,0 1.70313,-0.46875 0.5625,-0.46875 0.5625,-1.09375 0,-0.562504 -0.48438,-0.890629 -0.34375,-0.21875 -1.70312,-0.5625 -1.84375,-0.46875 -2.5625,-0.796875 -0.70313,-0.34375 -1.07813,-0.9375 -0.35937,-0.609375 -0.35937,-1.328125 0,-0.65625 0.29687,-1.21875 0.3125,-0.5625 0.82813,-0.9375 0.39062,-0.28125 1.0625,-0.484375 0.67187,-0.203125 1.4375,-0.203125 1.17187,0 2.04687,0.34375 0.875,0.328125 1.28125,0.90625 0.42188,0.5625 0.57813,1.515625 l -1.625,0.21875 q -0.10938,-0.75 -0.65625,-1.171875 -0.53125,-0.4375 -1.5,-0.4375 -1.15625,0 -1.64063,0.390625 -0.48437,0.375 -0.48437,0.875 0,0.328125 0.20312,0.59375 0.20313,0.265625 0.64063,0.4375 0.25,0.09375 1.46875,0.4375 1.76562,0.46875 2.46875,0.765625 0.70312,0.296875 1.09375,0.875 0.40625,0.578125 0.40625,1.4375 0,0.828129 -0.48438,1.578129 -0.48437,0.734375 -1.40625,1.140625 -0.92187,0.390625 -2.07812,0.390625 -1.92188,0 -2.9375,-0.796875 -1,-0.796875 -1.28125,-2.359379 z m 10,2.937504 v -9.859379 h 1.5 v 1.390625 q 0.45312,-0.71875 1.21875,-1.15625 0.78125,-0.453125 1.76562,-0.453125 1.09375,0 1.79688,0.453125 0.70312,0.453125 0.98437,1.28125 1.17188,-1.734375 3.04688,-1.734375 1.46875,0 2.25,0.8125 0.79687,0.8125 0.79687,2.5 v 6.765629 h -1.67187 v -6.203129 q 0,-1 -0.15625,-1.4375 -0.15625,-0.453125 -0.59375,-0.71875 -0.42188,-0.265625 -1,-0.265625 -1.03125,0 -1.71875,0.6875 -0.6875,0.6875 -0.6875,2.21875 v 5.718754 h -1.67188 V 60.35364 q 0,-1.109375 -0.40625,-1.65625 -0.40625,-0.5625 -1.34375,-0.5625 -0.70312,0 -1.3125,0.375 -0.59375,0.359375 -0.85937,1.078125 -0.26563,0.71875 -0.26563,2.0625 v 5.109379 z"
       id="path131"
       inkscape:connector-curvature="0"
       style="fill:#000000;fill-rule:nonzero" />
  </g>
</svg>
